<svg xmlns="http://www.w3.org/2000/svg" xmlns:xlink="http://www.w3.org/1999/xlink" viewBox="0 0 565.91 566.93"><defs><style>.cls-1{fill:#010101;filter:url(#luminosity-noclip);}.cls-2{fill:none;}.cls-3{isolation:isolate;}.cls-23,.cls-4{fill:#191919;}.cls-5{clip-path:url(#clip-path);}.cls-6{fill:url(#Degradado_sin_nombre_29);}.cls-7{fill:url(#Degradado_sin_nombre_29-2);}.cls-8{opacity:0.7;mix-blend-mode:overlay;}.cls-9{fill:url(#linear-gradient);}.cls-10{mix-blend-mode:hard-light;}.cls-11{fill:url(#Degradado_sin_nombre_29-3);}.cls-12{mask:url(#mask);}.cls-13{fill:url(#Degradado_sin_nombre_78);}.cls-14{fill:url(#Degradado_sin_nombre_78-2);}.cls-15{fill:url(#linear-gradient-2);}.cls-16{fill:url(#Degradado_sin_nombre_29-4);}.cls-17{fill:url(#Degradado_sin_nombre_89);}.cls-18{fill:url(#linear-gradient-3);}.cls-19{fill:url(#Degradado_sin_nombre_84);}.cls-20{fill:url(#Degradado_sin_nombre_89-2);}.cls-21{fill:url(#Degradado_sin_nombre_89-3);}.cls-22{fill:url(#Degradado_sin_nombre_89-4);}.cls-23{font-size:33.14px;letter-spacing:0.05em;}.cls-23,.cls-27{font-family:MyriadPro-Bold, Myriad Pro;font-weight:700;}.cls-24{letter-spacing:0.05em;}.cls-25{letter-spacing:0.06em;}.cls-26{fill:url(#Degradado_sin_nombre_89-5);}.cls-27{font-size:147.65px;fill:#fff;letter-spacing:0.05em;}</style><clipPath id="clip-path"><rect class="cls-2" x="138.14" width="428.79" height="513.26"/></clipPath><linearGradient id="Degradado_sin_nombre_29" x1="411.05" y1="222.51" x2="385.74" y2="282.86" gradientUnits="userSpaceOnUse"><stop offset="0" stop-color="#fab334"/><stop offset="0.32" stop-color="#f5972e"/><stop offset="1" stop-color="#e8501e"/></linearGradient><linearGradient id="Degradado_sin_nombre_29-2" x1="402.12" y1="227.19" x2="389.96" y2="288.33" xlink:href="#Degradado_sin_nombre_29"/><linearGradient id="linear-gradient" x1="407.83" y1="201.85" x2="391.37" y2="284.61" gradientUnits="userSpaceOnUse"><stop offset="0" stop-color="#05b1e2"/><stop offset="0.34" stop-color="#21b5d3"/><stop offset="1" stop-color="#61beb3"/></linearGradient><linearGradient id="Degradado_sin_nombre_29-3" x1="393.66" y1="228.13" x2="420.59" y2="228.13" xlink:href="#Degradado_sin_nombre_29"/><filter id="luminosity-noclip" x="466.32" y="196.69" width="39.18" height="87.16" filterUnits="userSpaceOnUse" color-interpolation-filters="sRGB"><feFlood flood-color="#fff" result="bg"/><feBlend in="SourceGraphic" in2="bg"/></filter><mask id="mask" x="466.32" y="196.69" width="39.18" height="87.16" maskUnits="userSpaceOnUse"><path class="cls-1" d="M499.19,216.89a55.66,55.66,0,0,0-1.88-8.55l-1.92,3.21c-7.45-7.37-17.64.23-24.87,8.95l-4.2,5.09,4.43,23.83.38,2.05C481.64,238,490.89,225.9,499.19,216.89Z"/></mask><linearGradient id="Degradado_sin_nombre_78" x1="478.74" y1="223.24" x2="505.02" y2="283.64" gradientUnits="userSpaceOnUse"><stop offset="0" stop-color="#e8501e"/><stop offset="0.68" stop-color="#f5972e"/><stop offset="1" stop-color="#fab334"/></linearGradient><linearGradient id="Degradado_sin_nombre_78-2" x1="486.04" y1="223.6" x2="502.47" y2="283.51" xlink:href="#Degradado_sin_nombre_78"/><linearGradient id="linear-gradient-2" x1="476.92" y1="203.23" x2="499.36" y2="285.05" xlink:href="#linear-gradient"/><linearGradient id="Degradado_sin_nombre_29-4" x1="446.39" y1="268.58" x2="446.39" y2="205.66" xlink:href="#Degradado_sin_nombre_29"/><linearGradient id="Degradado_sin_nombre_89" x1="460.36" y1="188.09" x2="435.87" y2="230.51" gradientUnits="userSpaceOnUse"><stop offset="0" stop-color="#fab334"/><stop offset="0.32" stop-color="#f5972e"/><stop offset="1" stop-color="#e8511f"/></linearGradient><linearGradient id="linear-gradient-3" x1="434.6" y1="211" x2="434.6" y2="245.79" gradientUnits="userSpaceOnUse"><stop offset="0" stop-color="#61beb3" stop-opacity="0.4"/><stop offset="0.32" stop-color="#41b9c3" stop-opacity="0.61"/><stop offset="0.78" stop-color="#16b3d9" stop-opacity="0.89"/><stop offset="1" stop-color="#05b1e2"/></linearGradient><linearGradient id="Degradado_sin_nombre_84" x1="501.63" y1="193.41" x2="534.82" y2="173.94" gradientTransform="matrix(1.08, 0.03, 0.1, 1.05, -74.13, -14.12)" gradientUnits="userSpaceOnUse"><stop offset="0.95" stop-color="#fab334"/><stop offset="0.99" stop-color="#fab334"/><stop offset="1" stop-color="#e8501e"/></linearGradient><linearGradient id="Degradado_sin_nombre_89-2" x1="179.93" y1="234.1" x2="326.29" y2="234.1" xlink:href="#Degradado_sin_nombre_89"/><linearGradient id="Degradado_sin_nombre_89-3" x1="189.47" y1="51.33" x2="206.58" y2="51.33" xlink:href="#Degradado_sin_nombre_89"/><linearGradient id="Degradado_sin_nombre_89-4" x1="223.69" y1="51.33" x2="240.79" y2="51.33" xlink:href="#Degradado_sin_nombre_89"/><linearGradient id="Degradado_sin_nombre_89-5" x1="0" y1="456.74" x2="220.37" y2="456.74" xlink:href="#Degradado_sin_nombre_89"/></defs><g class="cls-3"><g id="Capa_2" data-name="Capa 2"><g id="Capa_1-2" data-name="Capa 1"><path class="cls-4" d="M454.65,359.28a8.55,8.55,0,0,0-8.55,8.56V393.5H180.91a8.56,8.56,0,0,0,0,17.11H446.1v59.88a25.66,25.66,0,0,1-25.66,25.66H180.91a25.66,25.66,0,0,1-25.66-25.66V42.77a25.66,25.66,0,0,1,25.66-25.66H420.44A25.66,25.66,0,0,1,446.1,42.77V94.1a8.56,8.56,0,0,0,17.11,0V42.77A42.77,42.77,0,0,0,420.44,0H180.91a42.77,42.77,0,0,0-42.77,42.77V470.49a42.77,42.77,0,0,0,42.77,42.77H420.44a42.77,42.77,0,0,0,42.77-42.77V367.84a8.56,8.56,0,0,0-8.56-8.56Z"/><path class="cls-4" d="M334.89,444.83a8.56,8.56,0,1,0,0-17.11H266.46a17.11,17.11,0,0,0-17.11,17.11v17.11A17.11,17.11,0,0,0,266.46,479h68.43a8.55,8.55,0,1,0,0-17.1H266.46V444.83Z"/><g class="cls-5"><path class="cls-4" d="M454.65,119.76A111.21,111.21,0,0,0,349.78,268.09a8.57,8.57,0,1,0,16.16-5.73,94.09,94.09,0,1,1,22.16,35.16A8.55,8.55,0,0,0,376,309.58a111.2,111.2,0,1,0,78.61-189.82Z"/><path class="cls-6" d="M422.59,210.78a15.64,15.64,0,0,1-.27,2.95l-5,27.53L413.68,261c-2.82,15.43-16,25.31-29.42,22.07l12.44-68,1.31-7.21a15,15,0,0,1,3-6.71,11.44,11.44,0,0,1,11.7-4.32,12.36,12.36,0,0,1,7.48,5.55A15.7,15.7,0,0,1,422.59,210.78Z"/><path class="cls-7" d="M412,213.73a16.52,16.52,0,0,0,.27-2.95,15.62,15.62,0,0,0-2.4-8.4,12.92,12.92,0,0,0-4.85-4.56,12.54,12.54,0,0,0-4,3.33,15,15,0,0,0-3,6.71l-1.31,7.21-12.43,68c9.29-2.31,17-10.66,19.08-22l3.6-19.73Z"/><g class="cls-8"><path class="cls-9" d="M384.27,283a24.58,24.58,0,0,0,5.25-2.09,25.17,25.17,0,0,0,4.59-3.27,27.89,27.89,0,0,0,6.66-9,31.4,31.4,0,0,0,1.9-5.31c.46-1.82.77-3.68,1.1-5.54l2-11.15,4.14-22.29L412,213.24a15.86,15.86,0,0,0-2.12-10.86,16,16,0,0,1,2.3,10.88l-2,11.16-4,22.3-2.07,11.14c-.34,1.86-.66,3.72-1.13,5.56a32.81,32.81,0,0,1-1.95,5.34,27.83,27.83,0,0,1-6.76,9,24.82,24.82,0,0,1-4.67,3.21A25.1,25.1,0,0,1,384.27,283Z"/></g><g class="cls-10"><path class="cls-11" d="M417.22,218.85c-5.65-7-15.09-5.14-19.22-.24a17.32,17.32,0,0,0-2.82,4.55l-1.52,8.33c9-5.48,16.36.79,23.45,10.54l.22-1.19L420.59,223Z"/></g><g class="cls-12"><path class="cls-13" d="M467.17,211a16.33,16.33,0,0,0,.27,2.94l5,27.53,3.61,19.73c2.82,15.43,16,25.31,29.42,22.07l-12.43-68-1.32-7.2a15,15,0,0,0-3-6.72A11.46,11.46,0,0,0,477,197"/><path class="cls-14" d="M477.78,213.9a16.33,16.33,0,0,1-.27-2.94,15.68,15.68,0,0,1,2.4-8.41,12.92,12.92,0,0,1,4.85-4.56,12.54,12.54,0,0,1,4,3.33,15.06,15.06,0,0,1,3,6.72l1.31,7.2,12.43,68c-9.29-2.31-17-10.66-19.08-22l-3.6-19.73Z"/><g class="cls-8"><path class="cls-15" d="M505.5,283.2a24.53,24.53,0,0,1-5.29-2,25.3,25.3,0,0,1-4.67-3.21,28,28,0,0,1-6.76-9.05,32.48,32.48,0,0,1-1.95-5.34c-.47-1.84-.79-3.7-1.13-5.55l-2.07-11.15-4-22.3-2-11.15a16,16,0,0,1,2.3-10.89,15.86,15.86,0,0,0-2.12,10.86l2.06,11.14L484,246.83,486,258c.33,1.86.64,3.72,1.1,5.55a31.61,31.61,0,0,0,1.9,5.3,27.89,27.89,0,0,0,6.66,9,23.56,23.56,0,0,0,9.84,5.36Z"/></g></g><path class="cls-16" d="M495.27,205.45c-.48-2.61-3.33-2.71-4.79-4.53l-7.15-13.72-11.34,14L450.8,228.21a6.27,6.27,0,0,1-10.15,0L419.2,200.8c-5.24-6.74-14-4.93-17.83-.23a15.17,15.17,0,0,0-3.4,7.06l-3.65,20c13.12-8,22.5,8.57,33,24.39,9.28,14,28.57,14.3,37.93-.1,11.78-18.09,29.47-38.36,33.25-43.19Z"/><path class="cls-17" d="M398.92,214.83c4.06-4.69,13.32-6.5,18.87.23l22.71,27.41a6.85,6.85,0,0,0,10.74,0s17-20.56,22.43-27.06c5.22-6.25,20.28-9.84,25.66-4.55l1.53-3.86c-.47-2.61-8.78-4.58-10.24-6.4l-3-7.75c-5.09-5.28-7.65-1.63-15.47,8C466.9,207.26,451,227.89,451,227.89a6.27,6.27,0,0,1-10.16,0l-21.45-27.41c-5.24-6.73-14-4.92-17.83-.23a15.18,15.18,0,0,0-3.39,7.07l-2.37,13A15.47,15.47,0,0,1,398.92,214.83Z"/><g class="cls-8"><path class="cls-18" d="M395.64,220.83a15.53,15.53,0,0,1,3.55-5.9,12.86,12.86,0,0,1,6-3.42,12.7,12.7,0,0,1,6.89.13,12.22,12.22,0,0,1,5.71,3.85l17.72,21.3,4.4,5.34a9.27,9.27,0,0,0,2.45,2.35,6.74,6.74,0,0,0,3.2,1,7,7,0,0,0,5.84-2.91l4.43-5.32q8.85-10.67,17.78-21.25-8.76,10.72-17.59,21.4l-4.41,5.35a7.28,7.28,0,0,1-6.06,3,7.14,7.14,0,0,1-3.36-1,9.52,9.52,0,0,1-2.53-2.41L435.19,237l-17.63-21.37a12,12,0,0,0-5.59-3.81A12.89,12.89,0,0,0,399.25,215,15.42,15.42,0,0,0,395.64,220.83Z"/></g><path class="cls-19" d="M507,174.28,479,185.4a7.24,7.24,0,0,0-3,2c-1.22,1.53-.95,3.3.76,4.67L502,212.25c1.72,1.37,3.49,1.24,4.71-.28a7.14,7.14,0,0,0,1.31-3.34l4.67-29.78c.3-1.92-.13-3.46-1.22-4.33S508.81,173.57,507,174.28Z"/></g><path class="cls-20" d="M259.1,285.33a9.61,9.61,0,0,0,4.5,1.05,10.47,10.47,0,0,0,6.48-2.31l52.3-41.83a10.46,10.46,0,0,0,0-16.31l-52.3-41.84a10.45,10.45,0,0,0-16.94,8.16v10.46H190.38a10.46,10.46,0,0,0,0,20.91H263.6A10.44,10.44,0,0,0,274.05,214l25.1,20.08-25.1,20.08a10.45,10.45,0,0,0-10.45-9.62H190.38a10.46,10.46,0,0,0,0,20.92h62.76v10.46a10.46,10.46,0,0,0,6,9.41Z"/><path class="cls-21" d="M206.58,51.33A8.56,8.56,0,1,1,198,42.77a8.55,8.55,0,0,1,8.56,8.56Z"/><path class="cls-22" d="M240.79,51.33a8.55,8.55,0,1,1-8.55-8.56,8.55,8.55,0,0,1,8.55,8.56Z"/><path class="cls-4" d="M292.12,359.28H352a8.56,8.56,0,0,0,0-17.11H292.12a8.56,8.56,0,0,0,0,17.11Z"/><text class="cls-23" transform="translate(186.26 98.46) scale(0.94 1)">B<tspan class="cls-24" x="21.54" y="0">AN</tspan><tspan class="cls-25" x="69.46" y="0">C</tspan><tspan class="cls-24" x="91.17" y="0">A ONLINE</tspan></text><circle class="cls-26" cx="110.19" cy="456.74" r="110.19"/><text class="cls-27" transform="translate(69.8 505.43)">2</text></g></g></g></svg>