<svg xmlns="http://www.w3.org/2000/svg" xmlns:xlink="http://www.w3.org/1999/xlink" viewBox="0 0 503.5 502.64"><defs><style>.cls-1{fill:#fff;}.cls-2{fill:url(#Degradado_sin_nombre_78);}</style><linearGradient id="Degradado_sin_nombre_78" x1="284.5" y1="373.15" x2="503.5" y2="373.15" gradientUnits="userSpaceOnUse"><stop offset="0" stop-color="#e8501e"/><stop offset="0.68" stop-color="#f5972e"/><stop offset="1" stop-color="#fab334"/></linearGradient></defs><g id="Capa_2" data-name="Capa 2"><g id="Capa_1-2" data-name="Capa 1"><path class="cls-1" d="M221.84,419.83A189.49,189.49,0,0,1,40,230C40,125.23,125.23,40,230,40c88.34,0,166.35,62.49,185.48,148.58a20,20,0,1,0,39-8.67A230,230,0,0,0,230,0,230,230,0,0,0,64.15,389.36a228.81,228.81,0,0,0,156,70.43l.85,0a20,20,0,0,0,.83-40Z"/><path class="cls-1" d="M230,80.15a20,20,0,0,0-20,20V221.72l-64.61,64.61a20,20,0,1,0,28.28,28.28l70.47-70.47A20,20,0,0,0,250,230V100.15A20,20,0,0,0,230,80.15Z"/><path class="cls-2" d="M394,502.64c-27.63,0-53.78-4.46-73.64-12.57-31.2-12.73-35.86-29.85-35.86-38.92v-156c0-9.08,4.66-26.2,35.86-38.93,19.86-8.11,46-12.57,73.64-12.57s53.78,4.46,73.64,12.57c31.2,12.73,35.86,29.85,35.86,38.93v156c0,9.07-4.66,26.19-35.86,38.92C447.78,498.18,421.63,502.64,394,502.64Zm-86.5-50,1,1.89C313,462.89,329,469,335.61,471.2c11.52,3.86,31,8.45,58.39,8.45s46.88-4.59,58.39-8.45c6.65-2.23,22.62-8.31,27.1-16.66l1-1.89v-159l-1-1.88c-4.48-8.35-20.45-14.44-27.1-16.66-11.51-3.86-31-8.45-58.39-8.45-49.09,0-77.86,14.41-84.47,23.5l-3.64,5,3.64,5c6.6,9.09,35.37,23.5,84.47,23.5,6.08,0,12.16-.24,18.08-.71.31,0,.63,0,.94,0a11.55,11.55,0,0,1,11.44,10.58,11.51,11.51,0,0,1-10.54,12.38c-6.52.52-13.22.79-19.92.79-27.63,0-53.78-4.47-73.64-12.57l-1.06-.45-11.8-5v45l1,1.89C313,383.88,329,390,335.6,392.2c11.52,3.85,31,8.45,58.4,8.45,6.08,0,12.16-.24,18.08-.71.31,0,.63,0,.94,0a11.55,11.55,0,0,1,11.44,10.58,11.51,11.51,0,0,1-10.54,12.38c-6.52.52-13.22.78-19.92.78-27.63,0-53.78-4.46-73.64-12.57l-1.06-.45-11.8-5Z"/></g></g></svg>