<?xml version="1.0" encoding="utf-8"?>
<!-- Generator: Adobe Illustrator 24.1.0, SVG Export Plug-In . SVG Version: 6.00 Build 0)  -->
<svg version="1.1" id="Layer_1" xmlns="http://www.w3.org/2000/svg" xmlns:xlink="http://www.w3.org/1999/xlink" x="0px" y="0px"
	 viewBox="0 0 512 512" style="enable-background:new 0 0 512 512;" xml:space="preserve">
<style type="text/css">
	.st0{fill:#FFFFFF;}
</style>
<path class="st0" d="M428.8,453.1v50.4c0,4.7-3.8,8.5-8.5,8.5s-8.5-3.8-8.5-8.5v-50.4c0-39.2-31.8-71-71-71
	c-18.6,0-35.4-9.5-45.1-25.3c-2.5-4-1.2-9.3,2.8-11.7c4-2.5,9.3-1.2,11.7,2.8c6.5,10.7,17.9,17.1,30.5,17.1
	C389.4,365,428.8,404.4,428.8,453.1L428.8,453.1z M279.9,367.5c1,4.6-1.9,9.1-6.5,10.2c-22.5,4.9-45.3,0-63.5-12.4
	c-18,19.3-41.8,16.8-38.6,16.8c-39.2,0-71,31.8-71,71v50.4c0,4.7-3.8,8.5-8.5,8.5c-4.7,0-8.5-3.8-8.5-8.5v-50.4
	c0-48.7,39.4-88.1,88.1-88.1c19.7,0,35.7-15.9,35.7-35.6v-2.2c-37.2-17.8-63.4-55.2-65-98.8c-15.3-3.7-26.7-17.4-26.7-33.7v-44.2
	c-0.5-21.7,2.7-75.9,42.3-114c48.8-47.1,127.1-44.1,184.7-16.4c5.6,2.7,6.5,10.3,1.8,14.2c29.2,7.1,54.3,25,70.5,50.7
	c0.8,1.3,2.4,3.4,2,6.7c-0.2,2.1-0.9,3.8-2.4,5.4c-10.4,10.5-16.1,24.5-16.1,39.4v58.2c0,4.7-3.8,8.5-8.5,8.5s-8.5-3.8-8.5-8.5
	v-58.2c0-17.1,5.8-33.3,16.6-46.4c-16.4-23.4-41.9-38.4-70.7-41.5l-15-1.6c-8.8-0.9-10.5-13-2.3-16.4l6.8-2.8
	c-88.8-31-183.8,3.4-183.8,122.6v44.3c0,6.8,3.9,12.7,9.6,15.6V155c0-32.9,26.8-59.7,59.7-59.7h108.8c32.9,0,59.7,26.8,59.7,59.7
	v69.9c0,74.2-72.5,130.6-146.3,108.8c-0.5,6.1-2,12-4.5,17.4c14.4,9.9,32.5,13.8,50.4,9.9C274.3,360,278.9,362.9,279.9,367.5
	L279.9,367.5z M256,321.2c53.5,0,97.1-43.5,97.1-97.1V155c0-23.5-19.1-42.7-42.7-42.7H201.6c-23.5,0-42.7,19.1-42.7,42.7v69.2
	C158.9,277.7,202.5,321.2,256,321.2L256,321.2z M342.4,468.3h-25.6c-4.7,0-8.5,3.8-8.5,8.5s3.8,8.5,8.5,8.5h25.6
	c4.7,0,8.5-3.8,8.5-8.5S347.1,468.3,342.4,468.3z"/>
</svg>
