<?xml version="1.0" encoding="utf-8"?>
<!-- Generator: Adobe Illustrator 24.1.0, SVG Export Plug-In . SVG Version: 6.00 Build 0)  -->
<svg version="1.1" id="Layer_1" xmlns="http://www.w3.org/2000/svg" xmlns:xlink="http://www.w3.org/1999/xlink" x="0px" y="0px"
	 viewBox="0 0 512 512" style="enable-background:new 0 0 512 512;" xml:space="preserve">
<style type="text/css">
	.st0{fill:#FFFFFF;}
</style>
<path class="st0" d="M340.7,365c-12.6,0-24-6.4-30.5-17.1c-2.5-4-7.7-5.3-11.7-2.8c-4,2.5-5.3,7.7-2.8,11.7
	c4.5,7.5,10.7,13.5,17.8,17.8l-8.8,40.1l-21.3-24.6c3.9-4.5,2.9-9.6-0.4-12.5c-3.6-3.1-8.9-2.7-12,0.8l-15,17.3l-37.8-42
	c3.2-6.2,5.2-13,5.7-20C297,355.2,370.1,300,370.1,224.1v-70.5c0-4.7-3.8-8.5-8.5-8.5s-8.5,3.8-8.5,8.5v70.5
	c0,53.5-43.5,97.1-97.1,97.1s-97.1-43.5-97.1-97.1v-72.4c20.8-1.2,38.5-14.2,44.8-37.9c35.5,22.8,75.4,37.5,117.2,43.3
	c4.7,0.7,9-2.6,9.6-7.3c0.7-4.7-2.6-9-7.3-9.6c-42.6-6-84.1-21.9-121-48c-5.6-4-13.5,0.1-13.5,7c0,0.2-0.1,21.4-16.1,31
	c-10.2,6.1-20.4,4.1-22.2,4.1c-4.4,0-8.1,3.2-8.6,7.5c-0.1,0.8-0.1-2-0.1,68.3c-5.7-3-9.6-8.8-9.6-15.6v-104
	c0-11.2,9.1-20.3,20.3-20.3c3.5,0,6.6-2.1,7.9-5.4c11.7-29.1,39.5-48,70.9-48h73.2c42.1,0,76.3,34.2,76.3,76.3v101.2
	c0,4.7,3.8,8.5,8.5,8.5s8.5-3.8,8.5-8.5V93.4C397.9,41.9,356,0,304.5,0h-73.2c-36.6,0-69.2,20.9-84.6,53.8
	c-17.8,2.8-31.5,18.3-31.5,36.9v104c0,16.3,11.4,30,26.8,33.7c1.6,43.6,27.7,81,65,98.8v2.3c0,9.5-3.7,18.4-10.4,25.2
	c-11.9,11.9-27,10.4-25.2,10.4c-48.7,0-88.1,39.4-88.1,88.1v50.4c0,4.7,3.8,8.5,8.5,8.5c4.7,0,8.5-3.8,8.5-8.5v-50.4
	c0-39.2,31.8-71,71-71c3.7,0,7.5-0.4,11.1-1.2l11.9,54c1.5,6.8,10.2,9,14.8,3.8l16.8-19.4l-10.4,83.1c-0.6,4.7,2.7,8.9,7.4,9.5
	c4.7,0.6,8.9-2.7,9.5-7.4l12-96c0.5,0.6,5.3,5.9,5.9,6.5c3.5,3.1,8.9,2.8,12-0.8c1.7-1.9-2.7,3.1,5.1-5.9l12,96.2
	c0.6,4.7,4.8,8,9.5,7.4c4.7-0.6,8-4.8,7.4-9.5l-10.4-83.1l16.8,19.4c4.6,5.3,13.3,3.1,14.8-3.8l11.9-54c3.6,0.8,7.3,1.2,11.1,1.2
	c39.2,0,71,31.8,71,71v50.4c0,4.7,3.8,8.5,8.5,8.5c4.7,0,8.5-3.8,8.5-8.5v-50.4C428.8,404.4,389.4,365,340.7,365L340.7,365z
	 M207.3,414.7l-8.8-40.1c3.3-2,6.3-4.3,9.1-7l20.7,23L207.3,414.7z"/>
</svg>
