<svg xmlns="http://www.w3.org/2000/svg" xmlns:xlink="http://www.w3.org/1999/xlink" viewBox="0 0 792 612"><defs><style>.cls-1{filter:url(#luminosity-noclip);}.cls-2{isolation:isolate;}.cls-3{fill:url(#Degradado_sin_nombre_29);}.cls-4{fill:url(#Degradado_sin_nombre_29-2);}.cls-5{opacity:0.7;mix-blend-mode:overlay;}.cls-6{fill:url(#linear-gradient);}.cls-7{mix-blend-mode:hard-light;}.cls-8{fill:url(#Degradado_sin_nombre_29-3);}.cls-9{mask:url(#mask);}.cls-10{fill:url(#Degradado_sin_nombre_79);}.cls-11{fill:url(#Degradado_sin_nombre_78);}.cls-12{fill:url(#linear-gradient-2);}.cls-13{fill:url(#Degradado_sin_nombre_29-4);}.cls-14{fill:url(#Degradado_sin_nombre_89);}.cls-15{fill:url(#linear-gradient-3);}.cls-16{fill:url(#Degradado_sin_nombre_84);}.cls-17{fill:#fff;}</style><linearGradient id="Degradado_sin_nombre_29" x1="207.69" y1="296.15" x2="172.09" y2="381.08" gradientUnits="userSpaceOnUse"><stop offset="0" stop-color="#f9b233"/><stop offset="0.32" stop-color="#f4962d"/><stop offset="1" stop-color="#e84f1d"/></linearGradient><linearGradient id="Degradado_sin_nombre_29-2" x1="195.13" y1="302.74" x2="178.02" y2="388.77" xlink:href="#Degradado_sin_nombre_29"/><linearGradient id="linear-gradient" x1="203.18" y1="267.06" x2="180.01" y2="383.56" gradientUnits="userSpaceOnUse"><stop offset="0" stop-color="#00b1e2"/><stop offset="0.53" stop-color="#00cdd5"/><stop offset="1" stop-color="#00eac8"/></linearGradient><linearGradient id="Degradado_sin_nombre_29-3" x1="183.23" y1="304.06" x2="221.12" y2="304.06" xlink:href="#Degradado_sin_nombre_29"/><filter id="luminosity-noclip" x="285.48" y="259.82" width="55.13" height="122.65" filterUnits="userSpaceOnUse" color-interpolation-filters="sRGB"><feFlood flood-color="#fff" result="bg"/><feBlend in="SourceGraphic" in2="bg"/></filter><mask id="mask" x="285.48" y="259.82" width="55.13" height="122.65" maskUnits="userSpaceOnUse"><path class="cls-1" d="M331.74,288.24s-1.15-8-2.65-12l-2.7,4.52c-10.49-10.38-24.82.32-35,12.6l-5.91,7.16L291.71,334l.54,2.88C307,317.91,320.06,300.93,331.74,288.24Z"/></mask><linearGradient id="Degradado_sin_nombre_79" x1="302.96" y1="297.17" x2="339.94" y2="382.18" gradientUnits="userSpaceOnUse"><stop offset="0" stop-color="#e84f1d"/><stop offset="0.68" stop-color="#f4962d"/><stop offset="1" stop-color="#f9b233"/></linearGradient><linearGradient id="Degradado_sin_nombre_78" x1="313.23" y1="297.69" x2="336.36" y2="382" xlink:href="#Degradado_sin_nombre_79"/><linearGradient id="linear-gradient-2" x1="300.38" y1="269.01" x2="331.97" y2="384.17" xlink:href="#linear-gradient"/><linearGradient id="Degradado_sin_nombre_29-4" x1="257.44" y1="360.99" x2="257.44" y2="272.43" xlink:href="#Degradado_sin_nombre_29"/><linearGradient id="Degradado_sin_nombre_89" x1="277.09" y1="247.71" x2="242.63" y2="307.4" gradientUnits="userSpaceOnUse"><stop offset="0" stop-color="#f9b233"/><stop offset="0.32" stop-color="#f4962d"/><stop offset="1" stop-color="#e84f1d"/></linearGradient><linearGradient id="linear-gradient-3" x1="240.85" y1="279.94" x2="240.85" y2="328.93" gradientUnits="userSpaceOnUse"><stop offset="0" stop-color="#00eac8" stop-opacity="0.4"/><stop offset="0.29" stop-color="#00d8d0" stop-opacity="0.59"/><stop offset="0.77" stop-color="#00bcdd" stop-opacity="0.88"/><stop offset="1" stop-color="#00b1e2"/></linearGradient><linearGradient id="Degradado_sin_nombre_84" x1="260.62" y1="238.14" x2="307.32" y2="210.75" gradientTransform="matrix(1.08, 0.03, 0.1, 1.05, 7.32, 11.72)" gradientUnits="userSpaceOnUse"><stop offset="0.95" stop-color="#f9b233"/><stop offset="0.99" stop-color="#f9b233"/><stop offset="1" stop-color="#e84f1d"/></linearGradient></defs><g class="cls-2"><g id="Capa_1" data-name="Capa 1"><path class="cls-3" d="M223.94,279.65a22.56,22.56,0,0,1-.38,4.15l-7.08,38.74L211.4,350.3c-4,21.72-22.5,35.62-41.4,31.06l17.5-95.68,1.85-10.14a21.1,21.1,0,0,1,4.23-9.45c4-5,10.21-7.59,16.47-6.08a17.41,17.41,0,0,1,10.52,7.81A22.07,22.07,0,0,1,223.94,279.65Z"/><path class="cls-4" d="M209,283.8a23.45,23.45,0,0,0,.37-4.15A22.15,22.15,0,0,0,206,267.82a18.29,18.29,0,0,0-6.84-6.42,17.9,17.9,0,0,0-5.61,4.69,21.1,21.1,0,0,0-4.23,9.45l-1.85,10.14L170,381.31c13.07-3.24,23.92-15,26.85-31l5.07-27.76Z"/><g class="cls-5"><path class="cls-6" d="M170,381.31a34.14,34.14,0,0,0,7.38-2.94,35.06,35.06,0,0,0,6.46-4.6,39.26,39.26,0,0,0,9.37-12.68,46.42,46.42,0,0,0,2.68-7.46c.64-2.57,1.07-5.19,1.54-7.81l2.83-15.69,5.82-31.36L209,283.1a22.38,22.38,0,0,0-3-15.28,22.49,22.49,0,0,1,3.23,15.32l-2.81,15.7-5.64,31.39-2.92,15.68c-.48,2.61-.93,5.23-1.6,7.82a45.59,45.59,0,0,1-2.74,7.51A39.47,39.47,0,0,1,184,374a35.25,35.25,0,0,1-6.58,4.52A34.13,34.13,0,0,1,170,381.31Z"/></g><g class="cls-7"><path class="cls-8" d="M216.38,291c-7.95-9.89-21.23-7.23-27-.33a24,24,0,0,0-4,6.41l-2.14,11.71c12.73-7.7,23,1.11,33,14.84l.31-1.67,4.58-25.08Z"/></g><g class="cls-9"><path class="cls-10" d="M286.68,279.89a23.45,23.45,0,0,0,.37,4.15l7.09,38.74,5.07,27.77c4,21.71,22.51,35.61,41.4,31.05l-17.49-95.68-1.86-10.14a21,21,0,0,0-4.22-9.45c-4-5.05-10.22-7.59-16.48-6.08"/><path class="cls-11" d="M301.61,284a22.56,22.56,0,0,1-.38-4.15,22.07,22.07,0,0,1,3.37-11.83,18.16,18.16,0,0,1,6.83-6.41,17.77,17.77,0,0,1,5.62,4.68,21.25,21.25,0,0,1,4.22,9.45l1.86,10.14,17.48,95.64c-13.07-3.25-23.91-15-26.84-31l-5.08-27.77Z"/><g class="cls-5"><path class="cls-12" d="M340.61,381.56a33.4,33.4,0,0,1-14-7.35,39.57,39.57,0,0,1-9.53-12.72,45.69,45.69,0,0,1-2.74-7.52c-.66-2.59-1.12-5.21-1.6-7.82l-2.91-15.68-5.65-31.39-2.81-15.7a22.52,22.52,0,0,1,3.24-15.32,22.34,22.34,0,0,0-3,15.28l2.9,15.68,5.83,31.35,2.82,15.7c.47,2.61.91,5.24,1.55,7.8a46,46,0,0,0,2.67,7.46A39.45,39.45,0,0,0,326.77,374a35.26,35.26,0,0,0,6.46,4.6A34.9,34.9,0,0,0,340.61,381.56Z"/></g></g><path class="cls-13" d="M326.22,272.14c-.67-3.67-4.69-3.81-6.75-6.38l-10.05-19.3-16,19.63-29.82,38.08a8.83,8.83,0,0,1-14.29,0L219.17,265.6c-7.38-9.48-19.7-6.93-25.1-.32a21.27,21.27,0,0,0-4.77,9.94l-5.14,28.09c18.46-11.19,31.66,12.07,46.38,34.33,13.06,19.75,40.2,20.12,53.38-.14,16.57-25.46,41.47-54,46.79-60.78Z"/><path class="cls-14" d="M190.63,285.35c5.71-6.61,18.75-9.16,26.56.32l31.95,38.57a9.66,9.66,0,0,0,15.12,0s23.91-28.93,31.56-38.08c7.35-8.8,28.54-13.84,36.12-6.41l2.15-5.43c-.67-3.66-12.36-6.43-14.42-9l-4.24-10.91c-7.16-7.43-10.76-2.29-21.77,11.23-7.36,9-29.81,38.08-29.81,38.08a8.82,8.82,0,0,1-14.3,0l-30.18-38.57c-7.38-9.48-19.7-6.93-25.09-.32a21.33,21.33,0,0,0-4.78,9.94L186.16,293A21.81,21.81,0,0,1,190.63,285.35Z"/><g class="cls-5"><path class="cls-15" d="M186,293.79a21.57,21.57,0,0,1,5-8.3,16.54,16.54,0,0,1,1.81-1.64c.32-.25.67-.47,1-.7a6.91,6.91,0,0,1,1-.64,19.23,19.23,0,0,1,4.53-1.84,18,18,0,0,1,9.7.17,17.23,17.23,0,0,1,8,5.43l25,30,6.2,7.52a12.8,12.8,0,0,0,3.43,3.3,9.57,9.57,0,0,0,4.5,1.36,8.91,8.91,0,0,0,4.59-1,10.9,10.9,0,0,0,3.62-3.07l6.24-7.49,12.47-15,12.54-14.92L283.34,302l-12.4,15-6.2,7.52a11.55,11.55,0,0,1-3.74,3.2,9.45,9.45,0,0,1-4.81,1.09,9.91,9.91,0,0,1-4.73-1.41,13.26,13.26,0,0,1-3.57-3.39l-6.24-7.49-24.8-30.08a17,17,0,0,0-7.86-5.36,17.76,17.76,0,0,0-9.54-.21,18.79,18.79,0,0,0-4.49,1.76,6.74,6.74,0,0,0-1,.61c-.34.23-.68.44-1,.68a17.25,17.25,0,0,0-1.81,1.6A21.56,21.56,0,0,0,186,293.79Z"/></g><path class="cls-16" d="M342.74,228.28l-39.42,15.64a10.16,10.16,0,0,0-4.19,2.86c-1.72,2.15-1.34,4.63,1.07,6.56l35.52,28.38c2.41,1.92,4.91,1.74,6.63-.4a10.1,10.1,0,0,0,1.84-4.7l6.57-41.91c.42-2.7-.19-4.86-1.72-6.09S345.28,227.28,342.74,228.28Z"/><path class="cls-17" d="M365.48,337.18c0-26,22.53-47.21,48.52-47.21,28.15,0,48.51,19,48.51,47.21,0,26-22.53,47.21-48.51,47.21C385.84,384.39,365.48,365.33,365.48,337.18Zm72.77,0c0-14.3-10-24.69-24.25-24.69-13.87,0-24.26,10.39-24.26,24.69,0,13.86,10.39,24.69,24.26,24.69C428.29,361.87,438.25,351,438.25,337.18Z"/><path class="cls-17" d="M492.39,337.18c0-28.16,24.26-47.21,48.94-47.21,28.16,0,48.08,19,48.08,47.21v45H565.16v-45c0-14.3-10-24.69-24.26-24.69-13.86,0-24.25,10.39-24.25,24.69v45H492.39Z"/><path class="cls-17" d="M631.82,289.93c-9.5,0-11.75,3.22-12.12,7.46h-.06V373.2h0v9h12.18c10.64,0,12.18-4,12.18-9V289.93Z"/></g></g></svg>