<svg xmlns="http://www.w3.org/2000/svg" xmlns:xlink="http://www.w3.org/1999/xlink" viewBox="0 0 1806.76 1229.5"><defs><style>.cls-1{filter:url(#luminosity-noclip);}.cls-2{isolation:isolate;}.cls-3{fill:#241525;}.cls-19,.cls-32,.cls-37,.cls-38,.cls-4,.cls-7,.cls-8{fill:none;stroke-miterlimit:10;}.cls-4,.cls-8{stroke:#e7501e;}.cls-19,.cls-4,.cls-8{stroke-linecap:round;}.cls-4{stroke-width:3.31px;stroke-dasharray:20.55;}.cls-5{fill:#e7501e;}.cls-6{fill:#f8b233;}.cls-7{stroke:#f8b233;stroke-width:3.3px;}.cls-8{stroke-width:9.36px;}.cls-9{fill:#f26d6d;}.cls-10{fill:#f6a19e;}.cls-11{fill:#47b27c;}.cls-12{fill:#f95f6a;}.cls-13{fill:#8754af;}.cls-14{fill:#653087;}.cls-15{fill:#f9e0d2;}.cls-16{fill:#ffc5ae;}.cls-17{fill:#fb9c98;}.cls-18{fill:#2e3192;}.cls-19{stroke:#ffc5ae;stroke-width:4.25px;}.cls-20{fill:#fdc854;}.cls-21{fill:url(#Degradado_sin_nombre_2);}.cls-22{fill:url(#Degradado_sin_nombre_2-2);}.cls-23{fill:#f89f4f;}.cls-24{fill:url(#Degradado_sin_nombre_2-3);}.cls-25{fill:url(#Degradado_sin_nombre_2-4);}.cls-26{fill:url(#Degradado_sin_nombre_2-5);}.cls-27{fill:url(#Degradado_sin_nombre_2-6);}.cls-28{fill:url(#Degradado_sin_nombre_89);}.cls-29{fill:url(#Degradado_sin_nombre_2-7);}.cls-30{fill:url(#Degradado_sin_nombre_2-8);}.cls-31{fill:#4463cd;}.cls-32,.cls-37,.cls-38{stroke:#e1eef7;}.cls-32{stroke-width:3.94px;}.cls-33{fill:#efeefe;}.cls-34{fill:#d3d5fc;}.cls-35{fill:#bbb4f8;}.cls-36{fill:url(#Degradado_sin_nombre_89-2);}.cls-37{stroke-width:1.21px;}.cls-38{stroke-width:1.8px;}.cls-39{fill:#ce3a5e;}.cls-40{fill:#fff;}.cls-41{fill:url(#Degradado_sin_nombre_8);}.cls-42{opacity:0.7;mix-blend-mode:overlay;}.cls-43{fill:url(#linear-gradient);}.cls-44{mix-blend-mode:hard-light;}.cls-45{mask:url(#mask);}.cls-46{fill:url(#linear-gradient-2);}</style><linearGradient id="Degradado_sin_nombre_2" x1="552.09" y1="1213.44" x2="834.33" y2="1213.44" gradientUnits="userSpaceOnUse"><stop offset="0" stop-color="#f8b233"/><stop offset="0.33" stop-color="#f3962d"/><stop offset="1" stop-color="#e7501e"/></linearGradient><linearGradient id="Degradado_sin_nombre_2-2" x1="552.09" y1="1173.12" x2="834.33" y2="1173.12" xlink:href="#Degradado_sin_nombre_2"/><linearGradient id="Degradado_sin_nombre_2-3" x1="552.09" y1="1052.16" x2="834.33" y2="1052.16" xlink:href="#Degradado_sin_nombre_2"/><linearGradient id="Degradado_sin_nombre_2-4" x1="541.51" y1="1011.84" x2="823.74" y2="1011.84" xlink:href="#Degradado_sin_nombre_2"/><linearGradient id="Degradado_sin_nombre_2-5" x1="536.64" y1="971.52" x2="818.87" y2="971.52" xlink:href="#Degradado_sin_nombre_2"/><linearGradient id="Degradado_sin_nombre_2-6" x1="547.01" y1="931.21" x2="829.24" y2="931.21" xlink:href="#Degradado_sin_nombre_2"/><linearGradient id="Degradado_sin_nombre_89" x1="716.63" y1="1067.72" x2="968.32" y2="1067.72" gradientUnits="userSpaceOnUse"><stop offset="0" stop-color="#f8b233"/><stop offset="0.32" stop-color="#f3962d"/><stop offset="1" stop-color="#e7501e"/></linearGradient><linearGradient id="Degradado_sin_nombre_2-7" x1="551.15" y1="890.89" x2="833.38" y2="890.89" xlink:href="#Degradado_sin_nombre_2"/><linearGradient id="Degradado_sin_nombre_2-8" x1="474.59" y1="648.41" x2="756.18" y2="648.41" xlink:href="#Degradado_sin_nombre_2"/><linearGradient id="Degradado_sin_nombre_89-2" x1="719.4" y1="404.57" x2="1021.38" y2="404.57" gradientTransform="translate(541 -496.96) rotate(45)" xlink:href="#Degradado_sin_nombre_89"/><linearGradient id="Degradado_sin_nombre_8" x1="1273.65" y1="546.56" x2="1517.5" y2="546.56" gradientTransform="translate(795.23 -826.74) rotate(45)" gradientUnits="userSpaceOnUse"><stop offset="0" stop-color="#f8b233"/><stop offset="0.32" stop-color="#f3962d"/><stop offset="1" stop-color="#e7501e"/></linearGradient><linearGradient id="linear-gradient" x1="803.8" y1="362.97" x2="777.46" y2="495.41" gradientUnits="userSpaceOnUse"><stop offset="0" stop-color="#00b0e1"/><stop offset="0.33" stop-color="#1cb4d3"/><stop offset="1" stop-color="#60bdb1"/></linearGradient><filter id="luminosity-noclip" x="897.61" y="354.52" width="62.77" height="139.66" filterUnits="userSpaceOnUse" color-interpolation-filters="sRGB"><feFlood flood-color="#fff" result="bg"/><feBlend in="SourceGraphic" in2="bg"/></filter><mask id="mask" x="897.61" y="354.52" width="62.77" height="139.66" maskUnits="userSpaceOnUse"><path class="cls-1" d="M950.28,386.88s-1.31-9.1-3-13.7l-3.08,5.15c-12-11.82-28.27.36-39.85,14.34l-6.73,8.15,7.1,38.19.6,3.28C922.15,420.67,937,401.33,950.28,386.88Z"/></mask><linearGradient id="linear-gradient-2" x1="914.65" y1="365.06" x2="950.56" y2="495.99" xlink:href="#linear-gradient"/></defs><g class="cls-2"><g id="Capa_2" data-name="Capa 2"><g id="_ÎÓÈ_1" data-name="—ÎÓÈ_1"><path class="cls-3" d="M1503.84,1225H441.31C304.83,1039.87,298,917.58,321,838c34.61-119.64,140.68-156.23,157.37-302.84,9.49-83.33-20.05-113.09-22.94-166.69-.2-3.77,1.14-27.34,4.67-49.64,11.59-73.4,54.85-159.7,124.65-220.41,85.38-74.27,233.37-130.19,345-78,93.46,43.68,65.39,118.19,163.44,210.41,167.91,157.92,404.51,87,436.56,187.93,23.41,73.7-103.91,147.59-68.57,233.14,17.64,42.7,54.69,38.23,105.79,98,52.35,61.19,69.52,131.38,74.45,164.57C1665.07,1073.41,1529.72,1202,1503.84,1225Z"/><path class="cls-4" d="M676.64,933.07c-181.39,228.59-463.28,248.76-590,129-117-110.59-108.91-347.28-2-454,150.6-150.35,498.8-44.35,696,114,157.67,126.6,149.31,230.85,276,296,181.21,93.18,504.16,82.36,664-148,117.16-168.86,112.39-406.18-14-592"/><polygon class="cls-5" points="1722 285.36 1668.73 227.13 1673.21 310.65 1722 285.36"/><polyline class="cls-6" points="1739.48 261.05 1722 285.36 1669.19 227.5"/><polygon class="cls-6" points="1714.01 296.48 1668.8 227.65 1694.85 327.53 1714.01 296.48"/><path class="cls-7" d="M375.42,1015.08c-17.61-10.31-98.75-60.22-112.7-151.54-8.36-54.73,6.65-129.27,40.89-137.26,33.39-7.79,77.23,49.54,95,96.26C431.9,910.09,386.8,995,375.42,1015.08Z"/><path class="cls-7" d="M315.4,793.58s21.77,114.39,60,221.5,78.09,210.46,78.09,210.46"/><path class="cls-7" d="M345,917.29q8.94-33.07,17.89-66.14"/><path class="cls-7" d="M328.54,853.89c-2.91-6.6-8.92-11.21-14.7-15.53l-18.68-14"/><path class="cls-7" d="M324.69,1127.41c2.23-13.85,11.2-78.75-31.18-126.09-25.4-28.36-71.54-53-90.75-38.3-18.73,14.32-7.46,62.66,9.57,92.51C244.26,1111.49,309,1124.65,324.69,1127.41Z"/><path class="cls-7" d="M456.24,1225.54s-73.43-37.79-131.55-98.13-92.6-121.92-92.6-121.92"/><path class="cls-7" d="M286.18,1083.9l-35.74-8.67"/><path class="cls-7" d="M254.11,1039.44l2.91-31.76"/><line class="cls-8" x1="1608.29" y1="1224.82" x2="529.23" y2="1224.82"/><line class="cls-8" x1="501.15" y1="1224.82" x2="235.14" y2="1224.82"/><path class="cls-7" d="M1580.66,1221.28s6-54.94,29.85-105.69,54-87,54-87"/><path class="cls-7" d="M1634,1072.86q-1.56-12.21-3.13-24.41"/><path class="cls-7" d="M1648.6,1050.43l20.55-5.78"/><path class="cls-7" d="M1613.34,1109.48s-41-61.37,2.83-58.48c0,0-.69-78.18,25-40.4,0,0,56.19-60.9,43.92,24.44,0,0,29.55,3.71-17.63,31.9C1667.5,1066.94,1712.43,1092,1613.34,1109.48Z"/><path class="cls-9" d="M542.27,436.54h0a53,53,0,0,1,53,34.06c10.17,26.7,22.37,60.85,24.63,76.48,0,0,53.22,51.92,74.9,72.48l-11.53,10s-72.43-47.1-94.51-67.81S542.27,436.54,542.27,436.54Z"/><polygon class="cls-10" points="330.81 1197.08 329.75 1200.24 336.89 1207.71 344.47 1204.38 347.26 1200.24 348.08 1196.98 330.81 1197.08"/><polygon class="cls-10" points="584.99 1196.97 584.56 1200.24 588.01 1205.92 598.15 1204.96 601.18 1203.11 602.08 1200.24 602.05 1196.09 584.99 1196.97"/><path class="cls-11" d="M487.4,654.92c2.56-.38,4.05-6.65,3.08-11.68-1.45-7.59-8.23-11.63-9.37-12.29a19.2,19.2,0,0,0-1.91,11.17C480.11,648.52,484.56,655.34,487.4,654.92Z"/><path class="cls-11" d="M487.7,651.38c-.7,2.49,4.39,6.42,9.38,7.62,7.5,1.81,14-2.7,15.06-3.47a19.16,19.16,0,0,0-9.39-6.34C496.54,647.38,488.49,648.62,487.7,651.38Z"/><path class="cls-11" d="M491.17,648.33c1.56,2,7.77.33,11.71-3,5.94-4.93,6.21-12.82,6.24-14.14a19.14,19.14,0,0,0-10.7,3.73C493.25,638.85,489.42,646,491.17,648.33Z"/><path class="cls-12" d="M463.91,358.58h15.24a0,0,0,0,1,0,0V382.8a0,0,0,0,1,0,0h-5.93a9.3,9.3,0,0,1-9.3-9.3V358.58A0,0,0,0,1,463.91,358.58Z"/><path class="cls-13" d="M444,622.67s-43,55.12-116,574.41l21.8-.11L521.59,719.26V622.67Z"/><path class="cls-13" d="M573.7,593.09s51.93,40.85,51.69,150.53c-.12,49.13-23.34,452.47-23.34,452.47L585,1197c-30.25-153.57-52.14-304.49-77.13-460.67-3.58-.51-21.9-1.84-25.08-5.58-7-8.18-.17-22.45-.31-28.73-.59-25.12-.75-82.56.88-103.73C503.45,599.93,554.81,594.94,573.7,593.09Z"/><path class="cls-14" d="M602.05,1196.09s23.22-403.34,23.34-452.47c.24-109.68-51.69-150.53-51.69-150.53-4.39.52-8.86,1-13.39,1.44l-12.22,7.79s36.74,214.93,35.85,343.45c-.49,71.41-.43,170.46-.28,244.38q.66,3.42,1.33,6.82Z"/><path class="cls-15" d="M582.43,624.53A15.35,15.35,0,0,0,594.17,609,678.69,678.69,0,0,0,577.39,484.6c-4.62-20-9.92-38.79-15.58-56.25l-67-14.82L443,433.82A832.43,832.43,0,0,0,440.83,625a6.18,6.18,0,0,0,5.2,5.46,350.17,350.17,0,0,0,136.4-5.94Z"/><path class="cls-16" d="M588.42,623a8,8,0,0,0,6-8,679,679,0,0,0-17-130.4c-4.62-20-8.15-39.1-13.81-56.57-14.31-3.16-30.4-6-44.71-9.18-4.68.74-11.45,2.63-15.21,8.14-5,7.27-2.11,17-1.26,20.17,4.83,17.77,17.78,87.57,35.43,185.25A352,352,0,0,0,588.42,623Z"/><polygon class="cls-17" points="472.79 380.84 478.77 430.41 510.7 426.63 503.98 374.7 472.79 380.84"/><path class="cls-9" d="M504,374.7l-31.19,6.14.34,2.84c3.27,13.5,16.75,26,29.6,23.24a17.12,17.12,0,0,0,5.15-2Z"/><path class="cls-17" d="M500.21,344c1.15.66,9.93,5.92,13.05,16.23,4.15,13.7-2.57,33.4-16.53,36.43-13.36,2.89-27.42-10.77-30-24.87-2.24-12.5,4.11-28,15.41-31.29C490.14,338.14,497.83,342.59,500.21,344Z"/><path class="cls-12" d="M513.14,331.13c3.29,6.31-10.63,18.95-12,20.18-11.87,10.61-31.16,17.32-36.77,11.08-4.13-4.59-.33-15.57,4.68-22.08C481.22,324.49,509.26,323.7,513.14,331.13Z"/><path class="cls-17" d="M463,370.52a6.61,6.61,0,1,1,7.73,5.27A6.6,6.6,0,0,1,463,370.52Z"/><path class="cls-17" d="M447.48,615.88c4.22,3.17,7.94,5.87,10.94,8l1.44,1c4.13,2.93,6.57,4.57,6.57,4.57l1-5.79,2-11.58s-20.77-31.79-40.82-57.73l-1.4-1.8c-1.86-2.38-3.71-4.71-5.54-7-3.49-4.28-6.87-8.24-10-11.66-8,1.35-16.29,3.58-24.71,5.84-4.93,1.32-9.55,2.8-13.87,4.37,15.8,23.58,44,48.09,65.35,64.75C441.64,611.45,444.67,613.76,447.48,615.88Z"/><path class="cls-9" d="M683.29,629.54l7.6,7.21A25,25,0,0,0,696.3,646c1.53,1.64,8,8.55,15.42,7.1,5.24-1,10.12-6,9.29-8.76a3.34,3.34,0,0,0-2-1.89l-24.16-22.91Z"/><path class="cls-17" d="M523.17,419.8l-28.34-6.27L464,425.62a45.49,45.49,0,0,0,23.5,10.14A39.85,39.85,0,0,0,523.17,419.8Z"/><path class="cls-17" d="M412.35,489.79c-6.56-7.62-13.23-15.37-18.69-23.57-13.29,10.93-24.61,23.09-30.33,35.77-5.54,12.28-.3,27.4,10.21,42.88,13.29.14,28.07-3.29,40.56-8.2A99.66,99.66,0,0,0,402.27,525s11-8.9,23.94-20.81A175.37,175.37,0,0,1,412.35,489.79Z"/><path class="cls-18" d="M584.56,1200.24s-8.44,8.12,0,16.56h36.5v-16.56h-19S593.37,1205.34,584.56,1200.24Z"/><path class="cls-15" d="M621.06,1200.24h0a14.24,14.24,0,0,1,14.24,14.24v2.32a0,0,0,0,1,0,0H606.82a0,0,0,0,1,0,0v-2.32A14.24,14.24,0,0,1,621.06,1200.24Z"/><rect class="cls-15" x="583.08" y="1216.8" width="53.45" height="2.65"/><path class="cls-18" d="M347.26,1200.24s8.44,8.12,0,16.56H304.15l1.54-16.56h24.06S338.45,1205.34,347.26,1200.24Z"/><rect class="cls-15" x="289.87" y="1216.8" width="58.88" height="2.65" transform="translate(638.62 2436.26) rotate(180)"/><path class="cls-18" d="M305.69,1200.24a14.25,14.25,0,0,0-14.24,14.24v2.32h14.24Z"/><path class="cls-16" d="M563.58,428h0a44.46,44.46,0,0,1,34.64,34.89L603.8,491l-35.95,1.13Z"/><path class="cls-9" d="M701.26,626s7.59.18,8.61.88,4.9,7.22,2.66,11-5.75-6.79-5.75-6.79Z"/><path class="cls-15" d="M426.21,504.16c16.9-15.5,37.25-36.12,41.37-48.9,7.3-22.6-8.76-27.23-8.76-27.23s-34.54,7.93-65.16,38.19c5.46,8.2,12.13,15.95,18.69,23.57A175.37,175.37,0,0,0,426.21,504.16Z"/><polygon class="cls-16" points="391.61 465.27 425.51 506.74 431.57 500.44 396.07 460.74 391.61 465.27"/><polygon class="cls-16" points="571.38 487.63 606.2 486.47 606.2 493.69 572.33 494.43 571.38 487.63"/><path class="cls-19" d="M464,425.62s31.34,27.42,59.22-5.82"/><rect class="cls-20" x="552.09" y="1179.05" width="282.23" height="40.32" rx="7.54"/><path class="cls-21" d="M552.09,1211.66a7.71,7.71,0,0,0,7.71,7.71H826.62a7.71,7.71,0,0,0,7.71-7.71v-4.15H552.09Z"/><rect class="cls-20" x="552.09" y="1138.73" width="282.23" height="40.32" rx="7.54"/><path class="cls-22" d="M552.09,1171.34a7.71,7.71,0,0,0,7.71,7.71H826.62a7.71,7.71,0,0,0,7.71-7.71v-4.15H552.09Z"/><rect class="cls-20" x="552.09" y="1098.41" width="282.23" height="40.32" rx="7.54"/><path class="cls-23" d="M552.09,1131a7.71,7.71,0,0,0,7.71,7.71H826.62a7.71,7.71,0,0,0,7.71-7.71v-4.15H552.09Z"/><rect class="cls-20" x="536.64" y="1058.09" width="282.23" height="40.32" rx="7.54"/><path class="cls-23" d="M536.64,1090.7a7.71,7.71,0,0,0,7.7,7.71H811.16a7.71,7.71,0,0,0,7.71-7.71v-4.15H536.64Z"/><rect class="cls-20" x="552.09" y="1017.77" width="282.23" height="40.32" rx="7.54"/><path class="cls-24" d="M552.09,1050.38a7.71,7.71,0,0,0,7.71,7.71H826.62a7.71,7.71,0,0,0,7.71-7.71v-4.15H552.09Z"/><rect class="cls-6" x="541.51" y="977.45" width="282.23" height="40.32" rx="7.54"/><path class="cls-25" d="M541.51,1010.06a7.71,7.71,0,0,0,7.71,7.71H816a7.71,7.71,0,0,0,7.7-7.71v-4.15H541.51Z"/><rect class="cls-6" x="536.64" y="937.13" width="282.23" height="40.32" rx="7.54"/><path class="cls-26" d="M536.64,969.75a7.7,7.7,0,0,0,7.7,7.7H811.16a7.71,7.71,0,0,0,7.71-7.7V965.6H536.64Z"/><rect class="cls-6" x="547.01" y="896.82" width="282.23" height="40.32" rx="7.54"/><path class="cls-27" d="M547,929.43a7.7,7.7,0,0,0,7.7,7.7H821.53a7.71,7.71,0,0,0,7.71-7.7v-4.15H547Z"/><circle class="cls-6" cx="842.48" cy="1067.72" r="157.06"/><circle class="cls-28" cx="842.48" cy="1067.72" r="125.81"/><rect class="cls-6" x="551.15" y="856.5" width="282.23" height="40.32" rx="7.54"/><path class="cls-29" d="M551.15,889.11a7.71,7.71,0,0,0,7.71,7.71H825.68a7.71,7.71,0,0,0,7.7-7.71V885H551.15Z"/><rect class="cls-6" x="473.38" y="614.39" width="282.23" height="40.32" rx="7.54" transform="translate(-51.69 54.5) rotate(-4.87)"/><path class="cls-30" d="M474.94,658.94a7.72,7.72,0,0,0,8.34,7L749.13,643.3a7.72,7.72,0,0,0,7-8.34l-.36-4.13-281.21,24Z"/><path class="cls-17" d="M476.17,618c13.7.28,16.95,1.79,17.17,3.2.31,2-4.79,5.88-10.12,4.66A9.25,9.25,0,0,1,476.17,618Z"/><path class="cls-17" d="M458.47,622.69l8,6.81a25,25,0,0,0,5.88,9c1.61,1.55,8.39,8.13,15.76,6.3,5.19-1.29,9.8-6.53,8.83-9.23a3.32,3.32,0,0,0-2.13-1.78l-25.3-21.64Z"/><path class="cls-18" d="M570.35,1069.84a23.13,23.13,0,0,1,23.12-23.13h2.95a23.12,23.12,0,0,1,23.12,23.12,7.26,7.26,0,0,0,7.57,0h0a30.69,30.69,0,0,0-30.69-30.69h-2.95a30.69,30.69,0,0,0-30.68,30.7,7.14,7.14,0,0,0,7.56,0Z"/><path class="cls-31" d="M490.42,1068.14H697.56a0,0,0,0,1,0,0v151.31a0,0,0,0,1,0,0H484.44a8.23,8.23,0,0,1-8.23-8.23V1082.35A14.21,14.21,0,0,1,490.42,1068.14Z"/><path class="cls-18" d="M673.49,1101.73V1074.9H483.78a15.85,15.85,0,0,0-6.15,1.24,14.19,14.19,0,0,0-1.42,6.21v73.77a353.47,353.47,0,0,0,210.59.14,7.22,7.22,0,0,0,5.23-6.81v-47.72Z"/><path class="cls-18" d="M700,1068.11h0a5.08,5.08,0,0,1,5.08,5.08v141.19a5.08,5.08,0,0,1-5.08,5.08h-7.78a5.08,5.08,0,0,1-5.08-5.08V1081A12.86,12.86,0,0,1,700,1068.11Z"/><path class="cls-31" d="M693.92,1081c0-6.28-.25-11.51,6.12-12.63v-.19H483.85c-8.39,0-15.18,6.36-15.18,14.21v59.48a7.21,7.21,0,0,0,5.19,6.79,359.55,359.55,0,0,0,214.8.88,7.24,7.24,0,0,0,5.26-6.82Z"/><rect class="cls-23" x="566.7" y="1149.74" width="16.72" height="28.03" rx="0.92" transform="translate(1150.34 2327.4) rotate(179.99)"/><rect class="cls-20" x="565" y="1149.74" width="16.72" height="28.03" rx="0.92" transform="translate(1146.93 2327.4) rotate(179.99)"/><rect class="cls-10" x="918.63" y="1193.46" width="25.39" height="6.18"/><path class="cls-18" d="M943.91,1193.46s11,10.6,0,21.61H878.37a18.92,18.92,0,0,1,2.1-14,18.7,18.7,0,0,1,9.19-7.66h31.39S932.41,1200.11,943.91,1193.46Z"/><rect class="cls-18" x="869.01" y="1215.07" width="76.84" height="6.04" transform="translate(1814.85 2436.18) rotate(180)"/><path class="cls-18" d="M889.66,1193.46a18.59,18.59,0,0,0-18.59,18.59v3h10a25.72,25.72,0,0,1,1-9.75A26.18,26.18,0,0,1,889.66,1193.46Z"/><polygon class="cls-10" points="923.65 1181.86 924.38 1194.43 941.32 1194.1 942.37 1181.13 923.65 1181.86"/><path class="cls-31" d="M921.93,1186.66h22.64L1040,680.1,1036.56,539l-76.68-19.76S913.65,599.74,914.66,694C915.11,735.57,920.62,1100.76,921.93,1186.66Z"/><rect class="cls-18" x="1163.36" y="1215.07" width="50.04" height="6.01" transform="translate(2376.77 2436.15) rotate(180)"/><polygon class="cls-10" points="1172.55 1181.94 1175.22 1194.43 1192.16 1194.1 1191.35 1181.13 1172.55 1181.94"/><path class="cls-18" d="M1195.64,1193.46a16.24,16.24,0,0,1,13.87,7.51l.09.15a19,19,0,0,1,2.1,14h-42.84c-5.71-5.71-5.5-11.31-4-15.38a9.66,9.66,0,0,1,9-6.23Z"/><path class="cls-31" d="M1194.64,1186.66c-2.33-82.85-13.47-477.38-15.38-527.65-2.31-60.67-34.85-120.72-34.85-120.72-21.62,2.11-96.19,1.91-119.21,0-1.86,24.24,5.55,69.1,6.23,97.86.59,25.2,6.12,22.36,8.55,44l131.34,506.56Z"/><path class="cls-18" d="M1194.64,1186.66c-2.33-82.85-13.47-477.38-15.38-527.65-2.31-60.67-34.85-120.72-34.85-120.72-10.75,1.05-34.56,1.53-58.63,1.51l-6.4,2.91s36.24,70.33,42.8,122.36c4.94,39.12,43.65,363.17,62.56,521.59Z"/><line class="cls-32" x1="906.65" y1="1196.08" x2="900.41" y2="1202.32"/><line class="cls-32" x1="915.42" y1="1196.08" x2="909.18" y2="1202.32"/><path class="cls-10" d="M722.33,390.34l-14,.61s-16.49,12.15-37.39-2.44,4-16.45,4-16.45l44.55-1.94Z"/><path class="cls-10" d="M708.33,372.14c-11.43-14.36-15.68-16.59-17.36-15.68-2.32,1.25-2.36,9.88,3.26,14.56A12.36,12.36,0,0,0,708.33,372.14Z"/><path class="cls-33" d="M996,283s-47.68,27.86-84.88,53a140,140,0,0,1-84,23.69q-5.87-.24-11.93-.32c-37.44-.49-70.14,5.33-96.57,10.86l-.12,20.35s159.69,26.8,252.18-14.6S996,283,996,283Z"/><path class="cls-33" d="M968.39,530.34a19.37,19.37,0,0,1-14.68-19.72A856.68,856.68,0,0,1,975.84,353.8c6-25.22,12.82-48.86,20.1-70.85l84.64-18.18,65.23,26A1049.51,1049.51,0,0,1,1147.07,532a7.8,7.8,0,0,1-6.61,6.85,441.64,441.64,0,0,1-172.07-8.55Z"/><path class="cls-33" d="M968.39,530.34a19.37,19.37,0,0,1-14.68-19.72C956,464,966.31,411.21,979.88,354c6-25.22,15.18-50.46,22.46-72.46l78.24-16.8,65.23,26A1049.51,1049.51,0,0,1,1147.07,532a7.8,7.8,0,0,1-6.61,6.85,441.64,441.64,0,0,1-172.07-8.55Z"/><path class="cls-34" d="M1147.89,457.35a127.14,127.14,0,0,1,19.9-6.7s-39.6-85.59-35.32-115.25,13.34-44.62,13.34-44.62,80.84,93.44,78.87,155.45c-.54,17-14.87,31.21-35.38,42.92C1174.17,481.94,1159.32,469.85,1147.89,457.35Z"/><path class="cls-34" d="M1140.46,538.89a7.8,7.8,0,0,0,6.61-6.85,1049.51,1049.51,0,0,0-1.26-241.26l-65.23-26-11.52,2.47a419.08,419.08,0,0,1,24.82,94.17c10.43,73.53-.64,136.83-14.25,182.19A442.3,442.3,0,0,0,1140.46,538.89Z"/><path class="cls-34" d="M1066.1,528.58c-6.53,1.25-12.25,2.25-16.84,3l-2.21.36c-6.31,1-10,1.53-10,1.53l2.06-7.12,4.14-14.24s41.17-24.5,78.3-42.76l2.58-1.26c3.43-1.67,6.82-3.28,10.13-4.81,6.33-2.92,12.36-5.52,17.85-7.64,8.3,6,16.47,13.09,24.76,20.33,4.85,4.23,9.26,8.48,13.28,12.65-31,17.95-76.6,30.05-110,37.1C1075.19,526.8,1070.46,527.75,1066.1,528.58Z"/><polygon class="cls-12" points="1073.22 297.96 1091.92 406.5 1071.76 481.68 1036.65 409.57 1073.22 297.96"/><polygon class="cls-10" points="1108.65 223.69 1102.17 274.63 1060.45 281.17 1069.34 215.71 1108.65 223.69"/><path class="cls-9" d="M1069.34,215.7l39.31,8-.46,3.59c-4.23,17-21.34,32.7-37.53,29.09a22,22,0,0,1-6.49-2.61Z"/><path class="cls-10" d="M1072.94,174.07c-11.79,6.44-14.37,19.16-15.21,23.27-3.42,16.87,3.21,42.15,20.58,46.09,16.31,3.7,34.41-13.16,38-31.15,2.58-13-1.59-30.73-15.56-38.17A29.76,29.76,0,0,0,1072.94,174.07Z"/><path class="cls-18" d="M1109.18,208.46c.17,1.86.69,9.71-4.37,14-6.37,5.46-17.26,1.63-20,.66-6.13-2.16-7-4.66-11.33-5.14-6.29-.69-11.93,3.71-15.69,7.51-.19,3.52,0,10.05,4.27,15.23,8.13,9.95,25.71,8.48,36.43,2.06,14.23-8.52,20.66-28.33,15.94-33.11C1113.16,208.44,1111.14,208.26,1109.18,208.46Z"/><path class="cls-18" d="M1109.18,208.46c.34-1.27,3.79-15-3.41-23.18-1.4-1.58-6.1-6.81-11.5-6.23-1.7.18-2.57.84-13.81,8.44-2.74,1.84-4.22,2.81-6.31,2.71-3.17-.16-5.91-2.7-7.18-5.16-2.68-5.2.32-11.8,3.37-15.31,5.19-6,13.57-6,16.92-5.77,0,0,.61,0,1.21.11,11.77,1.39,26.9,15.31,28.79,29.15a14.39,14.39,0,0,1-.48,6.77C1115.12,204.92,1110.92,207.52,1109.18,208.46Z"/><path class="cls-10" d="M1124.14,209.1a8.34,8.34,0,1,0-9.79,6.58A8.34,8.34,0,0,0,1124.14,209.1Z"/><path class="cls-35" d="M1049.05,272.71c2.77-2.59,5.88-5.49,9.47-5.16,2.43.22,2.94,1.7,6.76,3.84a27.68,27.68,0,0,0,8.6,3.06,18,18,0,0,1-9.15,17.37,47.1,47.1,0,0,1-19.91-14.08A27.41,27.41,0,0,1,1049.05,272.71Z"/><path class="cls-35" d="M1106.61,272.53a18.92,18.92,0,0,0-4.79-4.21,48,48,0,0,0-11.39,1.53c-6.73,1.66-15,4.15-16.55,4.6a45.92,45.92,0,0,0,7.16,16.72A65.22,65.22,0,0,1,1110,278.88,18.94,18.94,0,0,0,1106.61,272.53Z"/><polygon class="cls-12" points="1074.58 274.63 1081.04 291.17 1073.22 297.96 1064.73 291.82 1074.58 274.63"/><circle class="cls-6" cx="870.39" cy="404.57" r="188.45" transform="translate(-31.14 733.95) rotate(-45)"/><circle class="cls-36" cx="870.39" cy="404.57" r="150.95" transform="translate(-31.14 733.95) rotate(-45)"/><path class="cls-10" d="M1033.42,516.15c-13.34-11-17.69-12.23-19.06-11.06-1.9,1.6-.25,9.57,5.85,12.78A11.66,11.66,0,0,0,1033.42,516.15Z"/><path class="cls-10" d="M1049.87,530.2l-12.8,3.29a44.2,44.2,0,0,1-11.65,6.92c-4.92,2-16.34,6.55-25.59,1.16-6.48-3.77-11-11.88-8.94-14.92,2.16-3.25,9.64,2.36,20.31-1,6.73-2.11,7.44-5.49,15.72-9.33a47.34,47.34,0,0,1,16.35-4.21Z"/><path class="cls-15" d="M1346.77,386.18l-18.84,4.4s-29.81,54.32-40.56,119.63c0,0-15.43,39.24-19.8,65.65A13.7,13.7,0,0,0,1278,591.42l.93.21,10.16-13.92,36.33-60.4Z"/><path class="cls-10" d="M1454.12,1186.91s.42,6.84-1.37,11.6,12.65,5.6,12.87,5.46,6.81-5.46,6.81-5.46a39.28,39.28,0,0,1-1.71-12.46"/><path class="cls-18" d="M1476.11,1208.88a23.08,23.08,0,0,0-3.68-10.37,28.4,28.4,0,0,0-7.32-1.66,28.69,28.69,0,0,0-12.36,1.66,19.44,19.44,0,0,0-4.15,10.72,19,19,0,0,0,1.22,7.88h25.59A23,23,0,0,0,1476.11,1208.88Z"/><path class="cls-18" d="M1463.16,1204h-1.29a13,13,0,0,0-13,13h27.27A13,13,0,0,0,1463.16,1204Z"/><rect class="cls-34" x="1448.54" y="1216.55" width="27.61" height="3.54"/><path class="cls-37" d="M1458.56,1200a13.17,13.17,0,0,1,7.63,0"/><path class="cls-37" d="M1458.56,1202.73a13.17,13.17,0,0,1,7.63,0"/><rect class="cls-10" x="1285" y="1197.29" width="23.09" height="5.62"/><path class="cls-18" d="M1308,1197.29s10,9.64,0,19.65h-59.61a17.2,17.2,0,0,1,1.91-12.69,17,17,0,0,1,8.36-7h28.55S1297.53,1203.34,1308,1197.29Z"/><path class="cls-18" d="M1258.65,1197.29a16.91,16.91,0,0,0-16.91,16.9v2.75h9.13a23.31,23.31,0,0,1,7.78-19.65Z"/><polygon class="cls-10" points="1289.97 1184.03 1290.23 1198.16 1305.64 1197.87 1306.6 1186.07 1289.97 1184.03"/><path class="cls-38" d="M1274.09,1197.91l-3,4.69"/><path class="cls-38" d="M1279.77,1198.33q-1.24,2.51-2.5,5"/><path class="cls-14" d="M1340.7,364.35c-2.67-5.07-10.64-21.77-5.93-42,5.89-25.37,29.16-45.5,49.75-45.25,27.23.33,58.47,36.42,52.87,87.28Z"/><path class="cls-12" d="M1318.09,582.7s-51.89,40.81-51.64,150.39c.11,49.07,23.31,452,23.31,452l17,.89c30.23-153.42,41.26-306,77.06-460.23,3.58-.51,21.88-1.84,25.05-5.57,7-8.18.17-22.43.32-28.71.59-25.09.75-82.48-.88-103.63C1388.27,589.53,1337,584.54,1318.09,582.7Z"/><path class="cls-12" d="M1471.24,589.9s27,51.9,24,146.67c-1.29,41.14-24.55,451-24.55,451l-8.87,1.63c-2.58-.62-7.28.75-7.72-1.86-27.55-162.77-52.22-303-70.25-461.55,2.7-33.4,11.14-104.17,13.84-137.58Z"/><path class="cls-16" d="M1442.19,405.61s3.62,86.37,12.44,129.47c0,0-67.18,22,68.91,24.93V543.69c-34.77-10.57,6.61-16.38-28.16-27-9.62-31.95-16.52-90.27-37.15-122Z"/><path class="cls-39" d="M1495.25,736.57c3-94.77-24-146.67-24-146.67l-50-1.16c13.53,85.18,24.83,177.52,32.18,276.3,8.67,116.34,10.63,224.88,8.38,324.14l8.87-1.63S1494,777.71,1495.25,736.57Z"/><path class="cls-15" d="M1471.24,589.9A679.51,679.51,0,0,0,1468,452.25c-2.57-20.36-5.93-39.55-9.79-57.48l-65.08-21.51-53.56,14.92a831.2,831.2,0,0,0-21.5,194.52,349.87,349.87,0,0,0,153.15,7.2Z"/><path class="cls-16" d="M1471.24,589.9A679.51,679.51,0,0,0,1468,452.25c-2.57-20.36-5.93-39.55-9.79-57.48L1416.51,381c-8.25,6.29-11.15,14.89-4.45,26.64,19.68,34.53,9.28,133.44,1.67,187.53A350.41,350.41,0,0,0,1471.24,589.9Z"/><path class="cls-17" d="M1375.82,367.13l-.31-30.16,30-1.45.38,33.69c.67,6.09,8.1,10.92,13.93,12.84l10.52,3.48c-1.1,9.32-10.62,30.55-19.73,31.93-17.27,2.61-38.66-26.56-48.4-35.57h0C1368.59,380.1,1375.4,373.8,1375.82,367.13Z"/><path class="cls-9" d="M1405.61,349l-.15-13.47-30,1.45.21,21a18.11,18.11,0,0,0,8.28,3.18C1392.42,362.06,1400.46,356.65,1405.61,349Z"/><path class="cls-17" d="M1375.21,304.66c-1.08.78-9.27,6.89-11.33,17.46-2.73,14,5.94,32.94,20.12,34.53,13.57,1.52,26.16-13.48,27.25-27.75,1-12.65-6.92-27.37-18.49-29.53C1384.63,297.85,1377.44,303.05,1375.21,304.66Z"/><path class="cls-14" d="M1361.06,293.22c-2.63,6.6,12.48,17.75,14,18.83,12.87,9.35,32.72,14.07,37.67,7.29,3.64-5-1.25-15.5-6.89-21.46C1392.11,283.38,1364.16,285.44,1361.06,293.22Z"/><path class="cls-17" d="M1418.58,326.35a6.6,6.6,0,1,0-7.15,6A6.61,6.61,0,0,0,1418.58,326.35Z"/><path class="cls-40" d="M1378.46,347.9c-.16,1.23,2.23,2.68,4.19,3,3.43.61,7.31-1.78,9-6.16C1381.25,345.38,1378.62,346.7,1378.46,347.9Z"/><circle class="cls-41" cx="1395.58" cy="546.56" r="121.93" transform="translate(22.28 1146.9) rotate(-45)"/><circle class="cls-20" cx="1395.58" cy="546.56" r="103.47" transform="translate(22.28 1146.9) rotate(-45)"/><path class="cls-17" d="M1271.1,581.5a10.32,10.32,0,0,0,8.75,11.33,29.49,29.49,0,0,0,10.39-.3c5.58-1.18,9.89-1.93,12.08-5.61,1.33-2.23,2-5.63.69-8.19a15.79,15.79,0,0,0-4.27-4.68h0c-2.23-1.68-10.42-4.18-19-.22C1276.16,575.48,1271.53,577.47,1271.1,581.5Z"/><path class="cls-17" d="M1276.63,575.52c8.63-11.66,11.93-13.54,13.28-12.86,1.87.92,2.14,7.74-2.18,11.59A9.79,9.79,0,0,1,1276.63,575.52Z"/><path class="cls-17" d="M1529.34,554.78a10.33,10.33,0,0,1-11.85,8,29.41,29.41,0,0,1-9.78-3.52c-4.93-2.86-8.79-4.92-9.73-9.09-.57-2.54-.1-6,1.89-8a15.85,15.85,0,0,1,5.52-3.12h0c2.63-.91,11.2-.74,18.11,5.7C1526.4,547.48,1530.18,550.81,1529.34,554.78Z"/><path class="cls-17" d="M1527.58,550.48c.06-14.5-1.45-18-2.94-18.25-2.05-.38-6.35,4.92-5.2,10.58A9.79,9.79,0,0,0,1527.58,550.48Z"/><rect class="cls-33" x="1239.86" y="1215.14" width="69.89" height="4.95" transform="translate(2549.62 2435.23) rotate(180)"/><path class="cls-40" d="M857.66,1161.26a10.75,10.75,0,0,0,7.14-13.43l-3.14-10.28,4-1.23a38.86,38.86,0,0,0,25.78-48.46l-2.45-8a38.86,38.86,0,0,0-48.47-25.78l-4,1.23L824,1014.17l20.56-6.29a10.75,10.75,0,0,0-6.28-20.56l-20.57,6.28-3.14-10.28A10.75,10.75,0,1,0,794,989.61l3.14,10.28-4,1.22a38.87,38.87,0,0,0-25.78,48.47l2.45,8a38.87,38.87,0,0,0,48.47,25.78l4-1.23,12.57,41.13-28.89,8.83a10.75,10.75,0,1,0,6.28,20.56l28.89-8.83,3.15,10.29a10.75,10.75,0,0,0,13.42,7.14ZM812,1062.8a17.33,17.33,0,0,1-21.62-11.49l-2.45-8a17.33,17.33,0,0,1,11.5-21.61l4-1.22L816,1061.58l-4,1.23Zm30.86,13.06,4-1.23a17.33,17.33,0,0,1,21.62,11.5l2.45,8a17.33,17.33,0,0,1-11.5,21.61l-4,1.23Z"/><path class="cls-40" d="M1467.19,491.06,1419.9,604.75a2.53,2.53,0,0,1-2.34,1.53H1406.1a2.57,2.57,0,0,1-2.07-1,2.28,2.28,0,0,1-.27-2.21l47-113.68a2.49,2.49,0,0,1,2.33-1.53h11.82a2.53,2.53,0,0,1,2.06,1A2.26,2.26,0,0,1,1467.19,491.06Zm-15,88.23a12.42,12.42,0,0,0-12.78,12.63,12.25,12.25,0,0,0,12.43,12.61h.18c7.4,0,12.77-5.31,12.77-12.61A12.2,12.2,0,0,0,1452.21,579.29Zm-83.84-43.2c-17.41-6.4-20.48-10.77-20.48-17.59,0-6.27,5.52-12.59,17.85-12.59,11,0,17.94,3.57,19.8,4.67a4.11,4.11,0,0,0,3.42.34,4,4,0,0,0,2.47-2.43l4.13-11.61a3.89,3.89,0,0,0-1.81-4.71c-3.19-1.78-12.27-5.92-27.49-5.92-24.49,0-41.59,13.93-41.59,33.88,0,15.89,10.9,27.38,33.32,35.12,16.08,5.71,19.22,11,19.22,18.07,0,9.31-7.57,14.88-20.26,14.88a48.45,48.45,0,0,1-24.57-6.6,4.21,4.21,0,0,0-3.48-.38,4,4,0,0,0-2.49,2.5l-4,11.95a3.89,3.89,0,0,0,1.64,4.51c7.16,4.54,20.55,7.83,31.83,7.83,32.86,0,44.52-19.31,44.52-35.84C1400.44,555.09,1391.15,544.63,1368.37,536.09Z"/><path class="cls-40" d="M827.53,377.1a25.35,25.35,0,0,1-.43,4.72L819,425.93l-5.78,31.62c-4.53,24.72-25.63,40.55-47.14,35.36L786,384l2.11-11.55A24.1,24.1,0,0,1,793,361.65c4.6-5.75,11.63-8.64,18.76-6.92a19.83,19.83,0,0,1,12,8.9A25.17,25.17,0,0,1,827.53,377.1Z"/><path class="cls-40" d="M810.54,381.82a26.23,26.23,0,0,0,.43-4.72,25.17,25.17,0,0,0-3.83-13.47,20.82,20.82,0,0,0-7.79-7.31,20.4,20.4,0,0,0-6.39,5.33,24.1,24.1,0,0,0-4.81,10.77L786,384,766.13,492.86c14.88-3.7,27.23-17.08,30.57-35.31l5.78-31.62Z"/><g class="cls-42"><path class="cls-40" d="M766.13,492.86c14.88-3.7,27.23-17.08,30.57-35.31l5.78-31.62,8.06-44.11a26.23,26.23,0,0,0,.43-4.72,25.17,25.17,0,0,0-3.83-13.47"/><path class="cls-43" d="M766.13,492.86a39.09,39.09,0,0,0,8.41-3.33,39.73,39.73,0,0,0,7.39-5.21,44.87,44.87,0,0,0,10.71-14.46,52.55,52.55,0,0,0,3.06-8.5c.73-2.93,1.23-5.92,1.77-8.89l3.24-17.87,6.59-35.71L810.58,381a25.54,25.54,0,0,0-3.44-17.4,25.62,25.62,0,0,1,3.62,17.43l-3.22,17.87-6.48,35.74-3.29,17.85c-.55,3-1.06,6-1.81,8.9a52.57,52.57,0,0,1-3.1,8.55,45,45,0,0,1-10.81,14.48,38.13,38.13,0,0,1-15.92,8.41Z"/></g><g class="cls-44"><path class="cls-40" d="M818.92,390c-9-11.27-24.17-8.24-30.79-.38a27.23,27.23,0,0,0-4.52,7.29l-2.43,13.34c14.5-8.77,26.2,1.27,37.58,16.9l.35-1.91,5.22-28.56Z"/></g><g class="cls-45"><path class="cls-40" d="M899,377.37a26.33,26.33,0,0,0,.43,4.73l8.06,44.11,5.78,31.61c4.53,24.73,25.63,40.56,47.14,35.37L940.46,384.24l-2.11-11.55a24.06,24.06,0,0,0-4.81-10.76c-4.59-5.75-11.63-8.64-18.76-6.92"/><path class="cls-40" d="M916,382.1a26.33,26.33,0,0,1-.43-4.73,25.06,25.06,0,0,1,3.84-13.46,20.64,20.64,0,0,1,7.78-7.31,20.4,20.4,0,0,1,6.39,5.33,24.06,24.06,0,0,1,4.81,10.76l2.11,11.55,19.91,108.89c-14.88-3.69-27.23-17.08-30.56-35.31L924,426.21Z"/><g class="cls-42"><path class="cls-40" d="M960.38,493.13c-14.88-3.69-27.23-17.08-30.56-35.31L924,426.21,916,382.1a26.33,26.33,0,0,1-.43-4.73,25.06,25.06,0,0,1,3.84-13.46"/><path class="cls-46" d="M960.38,493.13a38.81,38.81,0,0,1-8.45-3.24,40.39,40.39,0,0,1-7.47-5.16,45,45,0,0,1-10.8-14.49,52.84,52.84,0,0,1-3.11-8.54c-.75-2.94-1.26-5.93-1.81-8.9l-3.29-17.86L919,399.21l-3.23-17.87a25.57,25.57,0,0,1,3.63-17.43,25.48,25.48,0,0,0-3.45,17.4l3.28,17.86,6.6,35.71L929,452.74c.54,3,1,6,1.78,8.89a51.4,51.4,0,0,0,3.06,8.51,44.8,44.8,0,0,0,10.7,14.45,39.78,39.78,0,0,0,7.39,5.22A39.06,39.06,0,0,0,960.38,493.13Z"/></g></g><path class="cls-40" d="M944,368.54c-.76-4.17-5.34-4.33-7.68-7.26l-11.45-22-18.17,22.35-34,43.36a10.05,10.05,0,0,1-16.27,0L822.1,361.09c-8.41-10.79-22.44-7.89-28.58-.36a24.36,24.36,0,0,0-5.43,11.32l-5.85,32c21-12.75,36,13.74,52.81,39.09,14.87,22.49,45.77,22.91,60.78-.16,18.86-29,47.22-61.47,53.28-69.21Z"/><path class="cls-40" d="M789.6,383.59c6.5-7.53,21.35-10.43,30.25.36l36.37,43.92a11,11,0,0,0,17.23,0s27.22-32.94,35.93-43.36c8.37-10,32.49-15.76,41.12-7.29L953,371c-.76-4.17-14.07-7.33-16.41-10.25l-4.83-12.42c-8.15-8.47-12.25-2.6-24.79,12.79C898.54,371.44,873,404.51,873,404.51a10,10,0,0,1-16.27,0l-34.37-43.92c-8.4-10.79-22.43-7.89-28.57-.36a24.24,24.24,0,0,0-5.44,11.31l-3.8,20.78A24.82,24.82,0,0,1,789.6,383.59Z"/><path class="cls-40" d="M962.81,318.61l-44.9,17.81a11.6,11.6,0,0,0-4.76,3.25c-1.95,2.45-1.52,5.27,1.22,7.47l40.45,32.31c2.74,2.19,5.58,2,7.54-.45a11.6,11.6,0,0,0,2.1-5.35l7.47-47.73c.48-3.07-.21-5.53-1.95-6.92S965.7,317.46,962.81,318.61Z"/></g></g></g></svg>