<svg xmlns="http://www.w3.org/2000/svg" xmlns:xlink="http://www.w3.org/1999/xlink" viewBox="0 0 566.93 566.93"><defs><style>.cls-1{fill:url(#Degradado_sin_nombre_89);}.cls-2{fill:url(#Degradado_sin_nombre_89-2);}.cls-3{fill:url(#Degradado_sin_nombre_89-3);}.cls-4{fill:url(#Degradado_sin_nombre_89-4);}.cls-5{fill:url(#Degradado_sin_nombre_89-5);}.cls-6{fill:url(#Degradado_sin_nombre_89-6);}.cls-7{fill:url(#Degradado_sin_nombre_89-7);}.cls-8{fill:url(#Degradado_sin_nombre_89-8);}.cls-9{fill:#191919;}.cls-10{fill:url(#Degradado_sin_nombre_89-9);}.cls-11{fill:url(#Degradado_sin_nombre_89-10);}.cls-12{font-size:147.65px;fill:#fff;font-family:MyriadPro-Bold, Myriad Pro;font-weight:700;letter-spacing:0.05em;}</style><linearGradient id="Degradado_sin_nombre_89" x1="205.51" y1="112.44" x2="414.33" y2="112.44" gradientUnits="userSpaceOnUse"><stop offset="0" stop-color="#fab334"/><stop offset="0.32" stop-color="#f5972e"/><stop offset="1" stop-color="#e8511f"/></linearGradient><linearGradient id="Degradado_sin_nombre_89-2" x1="293.86" y1="56.22" x2="334.02" y2="56.22" xlink:href="#Degradado_sin_nombre_89"/><linearGradient id="Degradado_sin_nombre_89-3" x1="350.08" y1="56.22" x2="382.2" y2="56.22" xlink:href="#Degradado_sin_nombre_89"/><linearGradient id="Degradado_sin_nombre_89-4" x1="285.83" y1="88.35" x2="374.17" y2="88.35" xlink:href="#Degradado_sin_nombre_89"/><linearGradient id="Degradado_sin_nombre_89-5" x1="285.83" y1="120.47" x2="325.98" y2="120.47" xlink:href="#Degradado_sin_nombre_89"/><linearGradient id="Degradado_sin_nombre_89-6" x1="342.05" y1="120.47" x2="382.2" y2="120.47" xlink:href="#Degradado_sin_nombre_89"/><linearGradient id="Degradado_sin_nombre_89-7" x1="285.83" y1="152.6" x2="374.17" y2="152.6" xlink:href="#Degradado_sin_nombre_89"/><linearGradient id="Degradado_sin_nombre_89-8" x1="285.83" y1="184.72" x2="334.02" y2="184.72" xlink:href="#Degradado_sin_nombre_89"/><linearGradient id="Degradado_sin_nombre_89-9" x1="398.27" y1="313.23" x2="446.46" y2="313.23" xlink:href="#Degradado_sin_nombre_89"/><linearGradient id="Degradado_sin_nombre_89-10" x1="0" y1="456.74" x2="220.37" y2="456.74" xlink:href="#Degradado_sin_nombre_89"/></defs><g id="Capa_2" data-name="Capa 2"><g id="Capa_1-2" data-name="Capa 1"><path class="cls-1" d="M213.54,80.31H253.7V216.85a8,8,0,0,0,8,8H406.3a8,8,0,0,0,8-8V120.47a8,8,0,1,0-16.06,0v88.35H269.76V32.13a34,34,0,0,0-.56-5.79,7.72,7.72,0,0,0,0-1.36,30.28,30.28,0,0,0-1.6-5.3,27.09,27.09,0,0,0-2.17-3.62H382.2a16.07,16.07,0,0,1,16.07,16.07V80.31a8,8,0,1,0,16.06,0V32.13A32.12,32.12,0,0,0,382.2,0H237.64a32.13,32.13,0,0,0-32.13,32.13V72.28a8,8,0,0,0,8,8Zm8-48.18a16.07,16.07,0,1,1,32.13,0V64.25H221.57Z"/><path class="cls-2" d="M326,64.25a8,8,0,1,0,0-16.06H301.89a8,8,0,1,0,0,16.06Z"/><path class="cls-3" d="M374.17,48.19H358.11a8,8,0,0,0,0,16.06h16.06a8,8,0,0,0,0-16.06Z"/><path class="cls-4" d="M285.83,88.35a8,8,0,0,0,8,8h72.28a8,8,0,0,0,0-16.07H293.86a8,8,0,0,0-8,8Z"/><path class="cls-5" d="M293.86,128.5H318a8,8,0,1,0,0-16.06H293.86a8,8,0,0,0,0,16.06Z"/><path class="cls-6" d="M382.2,120.47a8,8,0,0,0-8-8H350.08a8,8,0,1,0,0,16.06h24.09a8,8,0,0,0,8-8Z"/><path class="cls-7" d="M374.17,152.6a8,8,0,0,0-8-8H293.86a8,8,0,0,0,0,16.06h72.28a8,8,0,0,0,8-8Z"/><path class="cls-8" d="M293.86,176.69a8,8,0,0,0,0,16.07H326a8,8,0,1,0,0-16.07Z"/><path class="cls-9" d="M526.77,144.57H446.46a8,8,0,1,0,0,16.06h80.31a24.09,24.09,0,0,1,22.65,16.06H526.77a8,8,0,0,0,0,16.07h24.1V257H414.33a56.22,56.22,0,1,0,0,112.44H526.77a8,8,0,0,0,0-16.06H414.33a40.16,40.16,0,1,1,0-80.32H550.87V433.7h-24.1a8,8,0,1,0,0,16.06h22.65a24.09,24.09,0,0,1-22.65,16.07H157.32a24.11,24.11,0,0,1-22.65-16.07h22.65a8,8,0,1,0,0-16.06H133.23V192.76h24.09a8,8,0,0,0,0-16.07H134.67a24.11,24.11,0,0,1,22.65-16.06h64.25a8,8,0,1,0,0-16.06H157.32a40.16,40.16,0,0,0-40.15,40.15v257a40.16,40.16,0,0,0,40.15,40.16H526.77a40.16,40.16,0,0,0,40.16-40.16v-257a40.16,40.16,0,0,0-40.16-40.15Z"/><path class="cls-10" d="M398.27,313.23a24.1,24.1,0,1,0,24.09-24.1,24.1,24.1,0,0,0-24.09,24.1Zm32.12,0a8,8,0,1,1-8-8,8,8,0,0,1,8,8Z"/><path class="cls-9" d="M237.64,192.76a8,8,0,0,0,0-16.07H205.51a8,8,0,0,0,0,16.07Z"/><path class="cls-9" d="M478.58,192.76a8,8,0,0,0,0-16.07H446.46a8,8,0,0,0,0,16.07Z"/><path class="cls-9" d="M398.27,449.76a8,8,0,0,0,0-16.06H366.14a8,8,0,1,0,0,16.06Z"/><path class="cls-9" d="M285.83,449.76H318a8,8,0,1,0,0-16.06H285.83a8,8,0,1,0,0,16.06Z"/><path class="cls-9" d="M478.58,449.76a8,8,0,1,0,0-16.06H446.46a8,8,0,0,0,0,16.06Z"/><path class="cls-9" d="M205.51,433.7a8,8,0,0,0,0,16.06h32.13a8,8,0,1,0,0-16.06Z"/><path class="cls-9" d="M285.83,321.26h24.09a8,8,0,0,0,0-16.06H285.83a8,8,0,0,0,0,16.06Z"/><path class="cls-9" d="M157.32,305.2a8,8,0,0,0,0,16.06h24.1a8,8,0,1,0,0-16.06Z"/><circle class="cls-11" cx="110.19" cy="456.74" r="110.19"/><text class="cls-12" transform="translate(69.8 505.43)">3</text></g></g></svg>