<svg xmlns="http://www.w3.org/2000/svg" xmlns:xlink="http://www.w3.org/1999/xlink" viewBox="0 0 552.44 552.44"><defs><style>.cls-1{fill:url(#Degradado_sin_nombre_89);}.cls-2{fill:#191919;}.cls-3{fill:url(#Degradado_sin_nombre_89-2);}.cls-4{fill:url(#Degradado_sin_nombre_89-3);}</style><linearGradient id="Degradado_sin_nombre_89" x1="220.98" y1="184.15" x2="331.46" y2="184.15" gradientUnits="userSpaceOnUse"><stop offset="0" stop-color="#fab334"/><stop offset="0.32" stop-color="#f5972e"/><stop offset="1" stop-color="#e8511f"/></linearGradient><linearGradient id="Degradado_sin_nombre_89-2" x1="0" y1="464.97" x2="257.81" y2="464.97" xlink:href="#Degradado_sin_nombre_89"/><linearGradient id="Degradado_sin_nombre_89-3" x1="294.63" y1="464.97" x2="552.44" y2="464.97" xlink:href="#Degradado_sin_nombre_89"/></defs><g id="Capa_2" data-name="Capa 2"><g id="Capa_1-2" data-name="Capa 1"><path class="cls-1" d="M276.22,128.9a55.25,55.25,0,1,0,55.24,55.25A55.25,55.25,0,0,0,276.22,128.9Zm0,92.08a36.83,36.83,0,1,1,36.83-36.83A36.83,36.83,0,0,1,276.22,221Z"/><path class="cls-2" d="M374.93,263.79a120.56,120.56,0,0,0-9.6-8.61l.09-.27A225.39,225.39,0,0,0,281.57,1.71a9.22,9.22,0,0,0-10.7,0A225.39,225.39,0,0,0,187,254.91l.09.27A117.57,117.57,0,0,0,169,420.45a118.77,118.77,0,0,0,8.62,9.6,9.21,9.21,0,0,0,6.51,2.7,9.58,9.58,0,0,0,2.91-.47,9.22,9.22,0,0,0,6.2-7.43l7-48.66a9.21,9.21,0,0,1,9.11-7.9h28l-7,35a9.19,9.19,0,0,0,7.18,10.86,8.71,8.71,0,0,0,1.84.19h73.66a9.21,9.21,0,0,0,9.21-9.2,8.87,8.87,0,0,0-.19-1.85l-7-35h28.05a9.22,9.22,0,0,1,9.11,7.91l6.95,48.65a9.21,9.21,0,0,0,6.2,7.43,9.58,9.58,0,0,0,2.91.47,9.21,9.21,0,0,0,6.51-2.7A117.57,117.57,0,0,0,374.93,263.79ZM276.22,20.65a207.73,207.73,0,0,1,54.43,62.22H221.79A207.73,207.73,0,0,1,276.22,20.65Zm-66.9,329.23A27.76,27.76,0,0,0,182,373.6l-4,27.92a99,99,0,0,1-16.11-62.95h0A99.28,99.28,0,0,1,193.19,274l24.36,75.85Zm41.3,46,5.53-27.62h40.14l5.53,27.62Zm-13.72-46-30.32-94.3-2-6.31a207,207,0,0,1,8-148h127.4a207,207,0,0,1,8,148l-2,6.31-30.31,94.3Zm137.54,51.64-4-27.92a27.76,27.76,0,0,0-27.34-23.72h-8.23L359.27,274a99.43,99.43,0,0,1,15.17,127.49Z"/><path class="cls-3" d="M239.39,432v30A63.84,63.84,0,0,0,176,477.51a73.89,73.89,0,0,0-56.34-26.35,72.63,72.63,0,0,0-19.83,2.76A91.61,91.61,0,0,0,9.21,377.5H0v18.42H9.21a73.23,73.23,0,0,1,73.08,65.76,73.71,73.71,0,0,0-22.76,20.65A91.56,91.56,0,0,0,0,460.37v18.41a73.75,73.75,0,0,1,73.66,73.66H92.07a91.47,91.47,0,0,0-19.33-56.29,55.34,55.34,0,0,1,22.89-21,.35.35,0,0,0,.28-.09,54.59,54.59,0,0,1,23.79-5.43,55.35,55.35,0,0,1,44.88,23.31,68.78,68.78,0,0,0-8.06,31.93h18.42a49.78,49.78,0,0,1,7.67-26.6h-.06c.13-.18.31-.3.44-.49a45.87,45.87,0,0,1,56.4-16.18v24.12h18.42V432Z"/><path class="cls-4" d="M543.23,395.92h9.21V377.5h-9.21a91.61,91.61,0,0,0-90.66,76.42,72.63,72.63,0,0,0-19.83-2.76,73.89,73.89,0,0,0-56.34,26.32A63.84,63.84,0,0,0,313.05,462V432H294.63v73.66h18.42V481.55a45.87,45.87,0,0,1,56.4,16.17c.13.19.31.32.44.49h-.06a49.82,49.82,0,0,1,7.67,26.61h18.42a68.78,68.78,0,0,0-8.06-31.93,55.35,55.35,0,0,1,44.88-23.31A54.61,54.61,0,0,1,456.53,475c.09,0,.19.05.28.09a55.35,55.35,0,0,1,22.94,21,91.44,91.44,0,0,0-19.38,56.29h18.41a73.75,73.75,0,0,1,73.66-73.66V460.37a91.56,91.56,0,0,0-59.53,22,73.82,73.82,0,0,0-22.76-20.65A73.23,73.23,0,0,1,543.23,395.92Z"/><rect class="cls-2" x="230.18" y="267.01" width="18.41" height="18.41"/><rect class="cls-2" x="267.01" y="267.01" width="18.41" height="18.41"/><rect class="cls-2" x="303.84" y="267.01" width="18.41" height="18.41"/><rect class="cls-2" x="101.28" y="487.99" width="18.41" height="18.41"/><rect class="cls-2" y="340.67" width="18.41" height="18.41"/><rect class="cls-2" x="515.61" y="423.54" width="18.41" height="18.41"/><rect class="cls-2" x="441.95" y="386.71" width="18.41" height="18.41"/><rect class="cls-2" x="340.67" y="534.03" width="18.41" height="18.41"/><rect class="cls-2" x="534.03" y="322.26" width="18.41" height="18.41"/></g></g></svg>