<svg xmlns="http://www.w3.org/2000/svg" xmlns:xlink="http://www.w3.org/1999/xlink" viewBox="0 0 566.93 548.01"><defs><style>.cls-1{fill:none;}.cls-2{fill:#191919;}.cls-3{clip-path:url(#clip-path);}.cls-4{fill:url(#Degradado_sin_nombre_89);}.cls-5{fill:url(#Degradado_sin_nombre_89-2);}</style><clipPath id="clip-path" transform="translate(0 0)"><rect class="cls-1" width="566.93" height="548.03"/></clipPath><linearGradient id="Degradado_sin_nombre_89" x1="160.63" y1="66.13" x2="387.4" y2="66.13" gradientUnits="userSpaceOnUse"><stop offset="0" stop-color="#fab334"/><stop offset="0.32" stop-color="#f5972e"/><stop offset="1" stop-color="#e8511f"/></linearGradient><linearGradient id="Degradado_sin_nombre_89-2" x1="188.98" y1="481.88" x2="415.75" y2="481.88" xlink:href="#Degradado_sin_nombre_89"/></defs><g id="Capa_2" data-name="Capa 2"><g id="Capa_1-2" data-name="Capa 1"><path class="cls-2" d="M310.21,314.06a9.43,9.43,0,0,0,13.32,0A56.07,56.07,0,0,0,340.16,274a56.7,56.7,0,1,0-56.7,56.69,9.45,9.45,0,1,0,0-18.9,37.79,37.79,0,1,1,26.75-11.05,9.43,9.43,0,0,0,0,13.32Z" transform="translate(0 0)"/><g class="cls-3"><path class="cls-2" d="M557.48,340.14H510.24V245.65h47.24a9.45,9.45,0,0,0,0-18.9H508.91a37.78,37.78,0,0,0-36.47-28.34h-18.9V170.06a9.45,9.45,0,0,0-9.45-9.45H330.71a9.45,9.45,0,0,0,0,18.9h48a66.12,66.12,0,0,0,5.67,18.9H349.61a9.45,9.45,0,0,0-9.45,9.45v18.89A28.34,28.34,0,0,0,368.5,255.1h18.9a9.45,9.45,0,0,1,9.45,9.45,28.34,28.34,0,0,0,28.35,28.34h9.45v19.66a66.14,66.14,0,0,0-55.94,55.94H188.22a66.14,66.14,0,0,0-55.94-55.94V292.89h9.45a28.34,28.34,0,0,0,28.35-28.34,9.45,9.45,0,0,1,9.45-9.45h18.9a28.34,28.34,0,0,0,28.34-28.35V207.86a9.45,9.45,0,0,0-9.45-9.45H182.55a66.12,66.12,0,0,0,5.67-18.9h95.24a9.45,9.45,0,1,0,0-18.9H122.83a9.45,9.45,0,0,0-9.44,9.45v28.35H94.49A37.78,37.78,0,0,0,58,226.75H9.45a9.45,9.45,0,0,0,0,18.9H56.69v94.49H9.45a9.45,9.45,0,1,0,0,18.9H113.39v18.89a9.45,9.45,0,0,0,9.44,9.45H444.09a9.45,9.45,0,0,0,9.45-9.45V359H557.48a9.45,9.45,0,0,0,0-18.9ZM397.8,179.51h36.85v18.9H406.3a47.82,47.82,0,0,1-8.5-18.9Zm-265.52,0h36.85a47.82,47.82,0,0,1-8.5,18.9H132.28ZM75.59,340.14V236.2a18.9,18.9,0,0,1,18.9-18.9H207.87v9.45a9.45,9.45,0,0,1-9.44,9.45h-18.9a28.35,28.35,0,0,0-28.35,28.35,9.45,9.45,0,0,1-9.45,9.45H99.21a9.45,9.45,0,1,0,0,18.89h14.18v47.25Zm56.69,28.35V331.64a47.23,47.23,0,0,1,36.85,36.85Zm302.37,0H397.8a47.22,47.22,0,0,1,36.85-36.85Zm18.89-75.6h14.18a9.45,9.45,0,1,0,0-18.89H425.2a9.45,9.45,0,0,1-9.45-9.45A28.35,28.35,0,0,0,387.4,236.2H368.5a9.45,9.45,0,0,1-9.44-9.45V217.3H472.44a18.9,18.9,0,0,1,18.9,18.9V340.14h-37.8Z" transform="translate(0 0)"/><path class="cls-4" d="M240,130.38a9.44,9.44,0,0,0,5.67,1.88,8.62,8.62,0,0,0,4.25-1,9.45,9.45,0,0,0,5.2-8.41v-18.9H378A9.45,9.45,0,0,0,378,85H245.67a9.45,9.45,0,0,0-9.45,9.45v9.45l-50.36-37.8,50.36-37.79v9.45a9.46,9.46,0,0,0,9.45,9.45H378a9.45,9.45,0,0,0,0-18.9H255.12V9.43A9.47,9.47,0,0,0,240,1.87l-75.59,56.7a9.45,9.45,0,0,0,0,15.12Z" transform="translate(0 0)"/><path class="cls-5" d="M336.38,417.62a9.47,9.47,0,0,0-15.12,7.56v18.9H198.43a9.45,9.45,0,1,0,0,18.89H330.71a9.45,9.45,0,0,0,9.45-9.45v-9.44l50.36,37.79-50.36,37.8v-9.45a9.45,9.45,0,0,0-9.45-9.45H198.43a9.45,9.45,0,0,0,0,18.9H321.26v18.89a9.45,9.45,0,0,0,5.19,8.41,8.59,8.59,0,0,0,4.26,1,9.51,9.51,0,0,0,5.67-1.88L412,489.43a9.45,9.45,0,0,0,0-15.12Z" transform="translate(0 0)"/></g></g></g></svg>