<svg xmlns="http://www.w3.org/2000/svg" xmlns:xlink="http://www.w3.org/1999/xlink" viewBox="0 0 558.74 551.59"><defs><style>.cls-1{fill:#fff;}.cls-2{fill:#191919;}.cls-3{fill:url(#Degradado_sin_nombre_89);}.cls-4{fill:url(#Degradado_sin_nombre_89-2);}</style><linearGradient id="Degradado_sin_nombre_89" x1="261.79" y1="364.28" x2="558.74" y2="364.28" gradientUnits="userSpaceOnUse"><stop offset="0" stop-color="#fab334"/><stop offset="0.32" stop-color="#f5972e"/><stop offset="1" stop-color="#e8511f"/></linearGradient><linearGradient id="Degradado_sin_nombre_89-2" x1="339.48" y1="354.58" x2="481.07" y2="354.58" xlink:href="#Degradado_sin_nombre_89"/></defs><g id="Capa_2" data-name="Capa 2"><g id="Capa_1-2" data-name="Capa 1"><polygon class="cls-1" points="438.48 256.31 554.55 294.81 545.71 426.43 487.58 512.32 438.49 541.38 363.4 484.57 322.44 363.06 322.44 300.94 438.48 256.31"/><path class="cls-2" d="M475.07,0H131.4a8.81,8.81,0,0,0,0,17.62H466.27V449.19H34.7v-74H56.49v43.39a8.8,8.8,0,0,0,8.8,8.81h50.76a8.81,8.81,0,0,0,0-17.62H74.1V375.2h7.6a8.81,8.81,0,0,0,8.81-8.81V277.73a8.81,8.81,0,0,0-8.81-8.81H74.1v-71h7.6a8.8,8.8,0,0,0,8.81-8.8V100.42a8.8,8.8,0,0,0-8.81-8.81H74.1V57H426.86v47.59a8.81,8.81,0,0,0,17.62,0V48.21a8.8,8.8,0,0,0-8.81-8.8H65.29a8.81,8.81,0,0,0-8.81,8.8v43.4H34.7v-74h66A8.81,8.81,0,1,0,100.7,0H25.89a8.81,8.81,0,0,0-8.81,8.81v82.8H8.81A8.8,8.8,0,0,0,0,100.42v88.66a8.8,8.8,0,0,0,8.81,8.8h8.27v71H8.81A8.81,8.81,0,0,0,0,277.73v88.66a8.81,8.81,0,0,0,8.81,8.81h8.27V458a8.81,8.81,0,0,0,8.81,8.81H61.41v24.68a8.8,8.8,0,0,0,8.81,8.81h92.59a8.8,8.8,0,0,0,8.81-8.81V466.81H329.34v24.68a8.81,8.81,0,0,0,8.81,8.81h92.6a8.81,8.81,0,0,0,8.81-8.81V466.81h35.52a8.82,8.82,0,0,0,8.81-8.81V8.81A8.82,8.82,0,0,0,475.07,0ZM17.62,180.27v-71H72.89v71Zm38.87,17.61v71H34.7v-71ZM17.62,357.58v-71H72.89v71ZM79,482.68V466.8h75v15.88Zm342.92,0H347V466.8h75Z"/><path class="cls-2" d="M435.67,126.51a8.81,8.81,0,0,0-8.81,8.8V409.78H146.76a8.81,8.81,0,0,0,0,17.62H435.67a8.81,8.81,0,0,0,8.81-8.81V135.31A8.81,8.81,0,0,0,435.67,126.51Z"/><path class="cls-2" d="M254.26,136.81a96.52,96.52,0,1,0,96.52,96.52A96.62,96.62,0,0,0,254.26,136.81Zm78.4,87.71h-33a45.86,45.86,0,0,0-7.07-17.06l23.32-23.31A78.47,78.47,0,0,1,332.66,224.52Zm-69.59-69.59a78.54,78.54,0,0,1,40.37,16.76L280.12,195a45.9,45.9,0,0,0-17.05-7.08Zm-17.62,0v33h0a46,46,0,0,0-17,7.07l-23.32-23.31A78.54,78.54,0,0,1,245.45,154.93Zm-52.82,29.22,23.31,23.31a45.93,45.93,0,0,0-7.07,17.06h-33A78.4,78.4,0,0,1,192.63,184.15Zm-16.77,58h33a45.86,45.86,0,0,0,7.07,17.06L192.63,282.5A78.48,78.48,0,0,1,175.86,242.13Zm69.59,69.59A78.54,78.54,0,0,1,205.08,295l23.32-23.31a46,46,0,0,0,17,7.07Zm-19.82-78.39A28.63,28.63,0,1,1,254.26,262,28.66,28.66,0,0,1,225.63,233.33Zm37.44,78.39v-33h0a46,46,0,0,0,17.05-7.07L303.44,295A78.54,78.54,0,0,1,263.07,311.72ZM315.9,282.5l-23.32-23.31a45.86,45.86,0,0,0,7.07-17.06h33A78.47,78.47,0,0,1,315.9,282.5Z"/><polygon class="cls-1" points="279.85 236.18 412.59 183.05 548.59 236.18 537.64 388.6 463.4 494.32 408.29 534.43 335.27 471.69 267.45 367.21 279.85 236.18"/><path class="cls-3" d="M410.27,551.59a12.58,12.58,0,0,1-6.26-1.66c-53.31-30.71-88.36-61.16-110.26-95.81-21.81-34.49-32-75.38-32-128.69V247.75a12.54,12.54,0,0,1,7.58-11.54L405.29,178a13,13,0,0,1,10,0l135.88,58.23a12.54,12.54,0,0,1,7.59,11.54v77.68c0,53.39-10.15,94.32-32,128.81-21.91,34.65-56.95,65.06-110.28,95.7A12.57,12.57,0,0,1,410.27,551.59ZM286.87,256v69.4c0,92.29,31.36,143.84,119.85,197l3.54,2.13,3.54-2.12c88.5-53,119.87-104.59,119.87-197V256l-123.4-52.89Z"/><path class="cls-4" d="M390.22,415.65a12.62,12.62,0,0,1-9.81-5.6L341.58,351.8a12.55,12.55,0,0,1,3.49-17.38,12.25,12.25,0,0,1,6.86-2.08,12.68,12.68,0,0,1,10.53,5.6l29.37,43.91,66.92-83.7a12.55,12.55,0,1,1,19.58,15.69l-77.67,97.09a12.51,12.51,0,0,1-9.81,4.72Z"/></g></g></svg>