<svg xmlns="http://www.w3.org/2000/svg" xmlns:xlink="http://www.w3.org/1999/xlink" viewBox="0 0 529.01 520.5"><defs><style>.cls-1{fill:#fff;}.cls-2{fill:url(#Degradado_sin_nombre_78);}.cls-3{fill:url(#Degradado_sin_nombre_78-2);}.cls-4{fill:url(#Degradado_sin_nombre_78-3);}.cls-5{fill:url(#Degradado_sin_nombre_78-4);}.cls-6{fill:url(#Degradado_sin_nombre_78-5);}</style><linearGradient id="Degradado_sin_nombre_78" x1="291.75" y1="88.17" x2="311.75" y2="88.17" gradientUnits="userSpaceOnUse"><stop offset="0" stop-color="#e8501e"/><stop offset="0.68" stop-color="#f5972e"/><stop offset="1" stop-color="#fab334"/></linearGradient><linearGradient id="Degradado_sin_nombre_78-2" x1="291.74" y1="32.05" x2="311.74" y2="32.05" xlink:href="#Degradado_sin_nombre_78"/><linearGradient id="Degradado_sin_nombre_78-3" x1="210.5" y1="18.5" x2="230.5" y2="18.5" xlink:href="#Degradado_sin_nombre_78"/><linearGradient id="Degradado_sin_nombre_78-4" x1="178.5" y1="90.05" x2="262.5" y2="90.05" xlink:href="#Degradado_sin_nombre_78"/><linearGradient id="Degradado_sin_nombre_78-5" x1="196.5" y1="190" x2="346.5" y2="190" xlink:href="#Degradado_sin_nombre_78"/></defs><g id="Capa_2" data-name="Capa 2"><g id="Capa_1-2" data-name="Capa 1"><path class="cls-1" d="M342.51,520.5A37.54,37.54,0,0,1,305,483v-2.56H258V483a37.54,37.54,0,0,1-37.5,37.5h-58A37.55,37.55,0,0,1,125,483V454.56A167.46,167.46,0,0,1,47,313c0-3.55.12-7.13.35-10.72A53.07,53.07,0,0,1,0,249.55c0-29.23,8.78-53,38-53a18.5,18.5,0,1,1,0,37c-8.82,0-7,7.18-7,16s13.17,16,22,16h.85a168.8,168.8,0,0,1,57-84,165.62,165.62,0,0,1,103.65-36H227a18.5,18.5,0,1,1,0,37H214.47C142.53,182.5,84,241,84,313a130.48,130.48,0,0,0,68.32,114.74A18.5,18.5,0,0,1,162,444v39a.51.51,0,0,0,.49.5h58a.51.51,0,0,0,.5-.5V461.94a18.52,18.52,0,0,1,18.5-18.51h84A18.53,18.53,0,0,1,342,461.94V483a.51.51,0,0,0,.49.5h58a.51.51,0,0,0,.49-.5V427.73a18.44,18.44,0,0,1,6.7-14.25A130.31,130.31,0,0,0,449.07,352a18.56,18.56,0,0,1,15.36-12.84l27-3.38a.65.65,0,0,0,.55-.62V284.73a.64.64,0,0,0-.55-.62l-29.16-3.65a18.41,18.41,0,0,1-15.09-12,130,130,0,0,0-27.76-45.09,18.2,18.2,0,0,1-3.21-3.29,130.17,130.17,0,0,0-61.53-34,18.5,18.5,0,1,1,8.51-36c5.15,1.22,10.31,2.71,15.42,4.46a77.56,77.56,0,0,1,68.45-41.78h2.22a18.5,18.5,0,0,1,18,22.75l-16.06,68.06a167.22,167.22,0,0,1,26.43,41.6l18.38,2.3a37.69,37.69,0,0,1,33,37.34v50.42a37.69,37.69,0,0,1-33,37.34l-15.7,2A167.89,167.89,0,0,1,438,436.13V483a37.54,37.54,0,0,1-37.5,37.5ZM401.3,162.67c2.61,1.61,26.29,20.71,28.81,22.46l6.26-47.56S404.26,157.4,401.3,162.67Z"/><path class="cls-1" d="M396.5,288.5a18.51,18.51,0,1,1,13.09-5.42A18.66,18.66,0,0,1,396.5,288.5Z"/><path class="cls-1" d="M403.57,262.93A10,10,0,1,0,406.5,270,10.08,10.08,0,0,0,403.57,262.93Z"/><path class="cls-2" d="M301.75,58.33a10,10,0,0,0-10,10V108a10,10,0,0,0,20,0V68.33A10,10,0,0,0,301.75,58.33Z"/><path class="cls-3" d="M308.81,25a10,10,0,1,0,2.93,7.07A10.08,10.08,0,0,0,308.81,25Z"/><path class="cls-4" d="M220.5,0a10,10,0,0,0-10,10V27a10,10,0,0,0,20,0V10A10,10,0,0,0,220.5,0Z"/><path class="cls-1" d="M131.44,331.94a18.54,18.54,0,0,1-18.5-18.39V313a18.51,18.51,0,1,1,37,0v.38a18.52,18.52,0,0,1-18.39,18.59h-.12Z"/><path class="cls-1" d="M141.44,313a10,10,0,0,0-20,0v.53a10,10,0,0,0,10,9.94h.06a10,10,0,0,0,9.94-10.06Z"/><path class="cls-1" d="M200.5,425.7a18.46,18.46,0,0,1-9.61-2.7,121.31,121.31,0,0,1-50-59.92,18.5,18.5,0,0,1,34.56-13.24,84.16,84.16,0,0,0,34.69,41.55,18.5,18.5,0,0,1-9.63,34.31Z"/><path class="cls-1" d="M205.71,398.65c-20.05-12.2-28.29-19.88-38.21-45.76A10,10,0,0,0,148.82,360a112.79,112.79,0,0,0,46.49,55.7,10,10,0,0,0,10.4-17.09Z"/><path class="cls-5" d="M220.5,48.05a42,42,0,1,0,42,42A42,42,0,0,0,220.5,48.05Zm0,64a22,22,0,1,1,22-22A22,22,0,0,1,220.5,112.05Z"/><path class="cls-6" d="M336.5,212h-9A42,42,0,1,0,256,212H206.5a10,10,0,0,0,0,20h130a10,10,0,0,0,0-20Zm-44.75,0a22,22,0,1,1,22-22A22,22,0,0,1,291.75,212Z"/></g></g></svg>