<svg xmlns="http://www.w3.org/2000/svg" xmlns:xlink="http://www.w3.org/1999/xlink" viewBox="0 0 446.56 502.64"><defs><style>.cls-1{fill:#fff;}.cls-2{fill:url(#Degradado_sin_nombre_78);}</style><linearGradient id="Degradado_sin_nombre_78" x1="168.05" y1="246.97" x2="278.41" y2="246.97" gradientUnits="userSpaceOnUse"><stop offset="0" stop-color="#e8501e"/><stop offset="0.68" stop-color="#f5972e"/><stop offset="1" stop-color="#fab334"/></linearGradient></defs><g id="Capa_2" data-name="Capa 2"><g id="Capa_1-2" data-name="Capa 1"><path class="cls-1" d="M446.56,252.11A223.06,223.06,0,0,0,278.92,35.91a17.64,17.64,0,0,0-8.72,34.18,188,188,0,0,1,28.54,354.17l16.32-38a17.66,17.66,0,0,0-32.44-14l-31.83,74.12a17.76,17.76,0,0,0,9.24,23.2l74.12,31.82c11.09,3.9,20.33-2.56,23.2-9.24a17.74,17.74,0,0,0-9.24-23.2l-32.23-13.86a222.76,222.76,0,0,0,130.68-203Z"/><path class="cls-1" d="M176.37,434.12A188,188,0,0,1,145.06,81.18l-15.3,35.52c-3.8,8.93.1,19.71,9.24,23.2,10.68,4,19.71-.82,23.2-9.24L194,56.44c3.08-7.19,3-18-9.24-23.2L110.67,1.41a17.77,17.77,0,0,0-23.21,9.24,17.76,17.76,0,0,0,9.24,23.2l34.5,14.79A223.29,223.29,0,0,0,167.64,468.3c11.91,3.08,19.4-4.72,21.46-12.72a17.7,17.7,0,0,0-12.73-21.46Z"/><path class="cls-2" d="M264.86,318.63c9-9.45,13.55-21.35,13.55-35.52a49,49,0,0,0-3.29-18,42.05,42.05,0,0,0-9.24-14.37,52,52,0,0,0-15.6-10.26c-3.39-1.44-10.16-3.49-20.53-6.06V175.52c6.67,1.34,11.91,4.21,15.81,8.52s6.36,10.48,7.6,18.48l21.14-3.18c-1.84-12.93-7.18-23.2-16.11-30.59q-10.49-8.77-28.34-10.47v-19H217.74v19c-13.55,1.33-23.82,5.13-30.7,11.19-10.37,9-15.5,20.84-15.5,35.41a44.34,44.34,0,0,0,5.34,22A36.81,36.81,0,0,0,192,241.94a84.6,84.6,0,0,0,25.87,9.76v65.18c-8-.82-15-4.92-20.74-12.21-4-5.14-6.87-13.25-8.41-24.23l-20.64,3.9c.72,10.57,3.49,19.61,8.11,27s10.16,12.73,16.63,16,14.78,5.55,25,6.88v20.43h12.11V333.93c14.37-.72,26.08-5.86,35-15.3Zm-47-86.75c-9.34-2.77-15.91-6.57-19.81-11.29S192.18,210,192.18,203a26.31,26.31,0,0,1,6.87-18.28q6.93-7.69,18.79-9.54v56.66Zm31.72,74.53a30.52,30.52,0,0,1-19.71,10.37V254.47c11,3.59,18.38,7.59,22.07,12.11s5.55,10.47,5.55,18c-.11,8.62-2.67,16-7.91,21.86Z"/></g></g></svg>