<svg xmlns="http://www.w3.org/2000/svg" xmlns:xlink="http://www.w3.org/1999/xlink" viewBox="0 0 547.65 512.32"><defs><style>.cls-1{fill:none;}.cls-2{fill:url(#Degradado_sin_nombre_89);}.cls-3{clip-path:url(#clip-path);}.cls-4{fill:url(#Degradado_sin_nombre_78);}.cls-5{fill:url(#Degradado_sin_nombre_78-2);}.cls-6{fill:#191919;}.cls-7{fill:url(#Degradado_sin_nombre_78-3);}.cls-8{fill:url(#Degradado_sin_nombre_89-2);}</style><linearGradient id="Degradado_sin_nombre_89" x1="433.31" y1="71.56" x2="450.97" y2="71.56" gradientUnits="userSpaceOnUse"><stop offset="0" stop-color="#fab334"/><stop offset="0.32" stop-color="#f5972e"/><stop offset="1" stop-color="#e8511f"/></linearGradient><clipPath id="clip-path" transform="translate(-0.48 -0.9)"><rect class="cls-1" width="548.62" height="514.12"/></clipPath><linearGradient id="Degradado_sin_nombre_78" x1="50.96" y1="167.92" x2="177.73" y2="167.92" gradientUnits="userSpaceOnUse"><stop offset="0" stop-color="#e8501e"/><stop offset="0.68" stop-color="#f5972e"/><stop offset="1" stop-color="#fab334"/></linearGradient><linearGradient id="Degradado_sin_nombre_78-2" x1="300.81" y1="106.89" x2="318.48" y2="106.89" xlink:href="#Degradado_sin_nombre_78"/><linearGradient id="Degradado_sin_nombre_78-3" x1="344.98" y1="36.23" x2="397.97" y2="36.23" xlink:href="#Degradado_sin_nombre_78"/><linearGradient id="Degradado_sin_nombre_89-2" x1="405.61" y1="229.4" x2="480.6" y2="229.4" xlink:href="#Degradado_sin_nombre_89"/></defs><g id="Capa_2" data-name="Capa 2"><g id="Capa_1-2" data-name="Capa 1"><path class="cls-2" d="M451,71.56a8.83,8.83,0,1,1-8.83-8.83A8.83,8.83,0,0,1,451,71.56Z" transform="translate(-0.48 -0.9)"/><g class="cls-3"><path class="cls-4" d="M177.58,118.94l-41.32,99.31a2.18,2.18,0,0,1-2,1.34h-10a2.25,2.25,0,0,1-1.81-.9,2,2,0,0,1-.24-1.93l41-99.31a2.17,2.17,0,0,1,2-1.34h10.32a2.22,2.22,0,0,1,1.8.9A2,2,0,0,1,177.58,118.94ZM164.49,196a10.85,10.85,0,0,0-11.16,11,10.7,10.7,0,0,0,10.86,11h.15a11,11,0,1,0,.15-22.05ZM91.25,158.27C76,152.68,73.36,148.86,73.36,142.9c0-5.47,4.82-11,15.59-11,9.63,0,15.67,3.13,17.3,4.09a3.61,3.61,0,0,0,3,.29,3.45,3.45,0,0,0,2.15-2.12L115,124a3.4,3.4,0,0,0-1.58-4.12c-2.79-1.55-10.72-5.17-24-5.17-21.39,0-36.33,12.17-36.33,29.6,0,13.88,9.53,23.92,29.11,30.68,14,5,16.79,9.57,16.79,15.79,0,8.13-6.61,13-17.7,13A42.3,42.3,0,0,1,59.81,198a3.65,3.65,0,0,0-3-.33,3.54,3.54,0,0,0-2.18,2.19l-3.46,10.43a3.39,3.39,0,0,0,1.44,3.94c6.25,4,17.95,6.84,27.8,6.84,28.71,0,38.89-16.87,38.89-31.31C119.26,174.87,111.15,165.74,91.25,158.27Z" transform="translate(-0.48 -0.9)"/><path class="cls-5" d="M318.48,106.9a8.84,8.84,0,1,1-8.84-8.84,8.83,8.83,0,0,1,8.84,8.84Z" transform="translate(-0.48 -0.9)"/><path class="cls-6" d="M442.14,407.22H300.81V336.55a8.37,8.37,0,0,0-.4-2,48.81,48.81,0,0,0,14.44-19.4L520,354.07a9.46,9.46,0,0,0,1.65.15,8.83,8.83,0,0,0,1.65-17.51l-41.6-7.89A106.12,106.12,0,1,0,369.5,307.55l-51.08-9.69c0-.35.06-.7.06-1.05a48.55,48.55,0,0,0-17.67-37.45V199.64a30.92,30.92,0,0,0-61.83,0v59.72A48.72,48.72,0,0,0,224.37,280l-69.23-13.13A106.13,106.13,0,1,0,42.46,245.52l-31.5-6A8.83,8.83,0,0,0,7.67,256.9l213.67,40.53a48.47,48.47,0,0,0,18,37.13,8.37,8.37,0,0,0-.4,2v70.67H97.65A97.28,97.28,0,0,0,.48,504.38a8.84,8.84,0,1,0,17.67,0,79.58,79.58,0,0,1,79.5-79.49H442.14a79.58,79.58,0,0,1,79.5,79.49,8.84,8.84,0,1,0,17.67,0,97.28,97.28,0,0,0-97.17-97.16ZM353.81,230.56a88.33,88.33,0,1,1,88.33,88.33,88.44,88.44,0,0,1-88.33-88.33ZM27,168.73a88.33,88.33,0,1,1,88.33,88.33A88.43,88.43,0,0,1,27,168.73Zm229.67,30.91a13.25,13.25,0,0,1,26.5,0v50.47a47.39,47.39,0,0,0-26.5,0Zm13.25,66.25A30.92,30.92,0,1,1,239,296.81a31,31,0,0,1,30.92-30.92ZM256.65,343.5a47.39,47.39,0,0,0,26.5,0v63.72h-26.5Z" transform="translate(-0.48 -0.9)"/></g><path class="cls-7" d="M371.48,62.73A26.5,26.5,0,1,0,345,36.23a26.52,26.52,0,0,0,26.5,26.5Zm0-35.34a8.84,8.84,0,1,1-8.84,8.84,8.85,8.85,0,0,1,8.84-8.84Z" transform="translate(-0.48 -0.9)"/><path class="cls-8" d="M432.68,236.9h2.92v30H414.53a7.5,7.5,0,0,0,0,15H435.6v7.51a7.5,7.5,0,0,0,15,0v-7.51h2.92a27.1,27.1,0,0,0,27.08-27.07V249a27.11,27.11,0,0,0-27.08-27.07H450.6v-30h15a7.5,7.5,0,0,0,0-15h-15v-7.5a7.5,7.5,0,1,0-15,0v7.5h-2.92A27.1,27.1,0,0,0,405.61,204v5.85a27.1,27.1,0,0,0,27.07,27.07Zm20.84,0A12.09,12.09,0,0,1,465.6,249v5.85a12.09,12.09,0,0,1-12.08,12.07H450.6v-30ZM420.61,204a12.08,12.08,0,0,1,12.07-12.07h2.92v30h-2.92a12.09,12.09,0,0,1-12.07-12.07Z" transform="translate(-0.48 -0.9)"/><path class="cls-6" d="M115.31,45.06a8.82,8.82,0,0,0,8.84-8.83V9.73a8.84,8.84,0,0,0-17.67,0v26.5a8.83,8.83,0,0,0,8.83,8.83Z" transform="translate(-0.48 -0.9)"/><path class="cls-6" d="M150.65,53.89a8.78,8.78,0,0,0,6.24-2.59l17.67-17.66a8.83,8.83,0,0,0-12.49-12.49L144.4,38.82a8.83,8.83,0,0,0,6.25,15.07Z" transform="translate(-0.48 -0.9)"/><path class="cls-6" d="M73.73,51.3a8.83,8.83,0,1,0,12.5-12.48L68.56,21.15A8.83,8.83,0,0,0,56.07,33.64Z" transform="translate(-0.48 -0.9)"/></g></g></svg>