<svg xmlns="http://www.w3.org/2000/svg" xmlns:xlink="http://www.w3.org/1999/xlink" viewBox="0 0 566.93 493.36"><defs><style>.cls-1{fill:#191919;}.cls-2{fill:url(#Degradado_sin_nombre_78);}.cls-3{fill:url(#Degradado_sin_nombre_89);}.cls-4{fill:url(#Degradado_sin_nombre_89-2);}.cls-5{fill:url(#Degradado_sin_nombre_89-3);}.cls-6{fill:url(#Degradado_sin_nombre_89-4);}.cls-7{fill:url(#Degradado_sin_nombre_89-5);}.cls-8{fill:url(#Degradado_sin_nombre_89-6);}.cls-9{fill:url(#Degradado_sin_nombre_89-7);}.cls-10{fill:url(#Degradado_sin_nombre_78-2);}.cls-11{fill:url(#Degradado_sin_nombre_89-8);}.cls-12{font-size:147.65px;fill:#fff;font-family:MyriadPro-Bold, Myriad Pro;font-weight:700;letter-spacing:0.05em;}</style><linearGradient id="Degradado_sin_nombre_78" x1="170.1" y1="228.5" x2="228.94" y2="228.5" gradientUnits="userSpaceOnUse"><stop offset="0" stop-color="#e8501e"/><stop offset="0.68" stop-color="#f5972e"/><stop offset="1" stop-color="#fab334"/></linearGradient><linearGradient id="Degradado_sin_nombre_89" x1="415.71" y1="63.67" x2="431.63" y2="63.67" gradientUnits="userSpaceOnUse"><stop offset="0" stop-color="#fab334"/><stop offset="0.32" stop-color="#f5972e"/><stop offset="1" stop-color="#e8511f"/></linearGradient><linearGradient id="Degradado_sin_nombre_89-2" x1="407.76" y1="15.92" x2="431.63" y2="15.92" xlink:href="#Degradado_sin_nombre_89"/><linearGradient id="Degradado_sin_nombre_89-3" x1="296.34" y1="7.96" x2="336.13" y2="7.96" xlink:href="#Degradado_sin_nombre_89"/><linearGradient id="Degradado_sin_nombre_89-4" x1="352.05" y1="7.96" x2="391.84" y2="7.96" xlink:href="#Degradado_sin_nombre_89"/><linearGradient id="Degradado_sin_nombre_89-5" x1="192.87" y1="59.69" x2="208.79" y2="59.69" xlink:href="#Degradado_sin_nombre_89"/><linearGradient id="Degradado_sin_nombre_89-6" x1="192.87" y1="11.94" x2="224.71" y2="11.94" xlink:href="#Degradado_sin_nombre_89"/><linearGradient id="Degradado_sin_nombre_89-7" x1="240.63" y1="7.96" x2="280.42" y2="7.96" xlink:href="#Degradado_sin_nombre_89"/><linearGradient id="Degradado_sin_nombre_78-2" x1="366.51" y1="228.5" x2="471.51" y2="228.5" xlink:href="#Degradado_sin_nombre_78"/><linearGradient id="Degradado_sin_nombre_89-8" x1="0" y1="383.18" x2="220.37" y2="383.18" xlink:href="#Degradado_sin_nombre_89"/></defs><g id="Capa_2" data-name="Capa 2"><g id="Capa_1-2" data-name="Capa 1"><path class="cls-1" d="M559,350.18H129.2V124.55c0-7.23,5.6-13.13,12.47-13.13H482.83c6.88,0,12.47,5.9,12.47,13.13V326.31a8,8,0,0,0,15.92,0V124.55c0-16-12.73-29-28.39-29H141.67c-15.65,0-28.39,13-28.39,29V350.18H65.53a8,8,0,0,0-8,8v27.32A28.42,28.42,0,0,0,86,413.85H538.54a28.41,28.41,0,0,0,28.39-28.39V358.14a8,8,0,0,0-8-8ZM381.71,366.1a15.85,15.85,0,0,1-13.75,8H256.54a15.93,15.93,0,0,1-13.7-8ZM551,385.46a12.48,12.48,0,0,1-12.47,12.47H86a12.49,12.49,0,0,1-12.47-12.47V366.1H225.77A32,32,0,0,0,256.54,390H368a31.69,31.69,0,0,0,30.73-23.88H551Z"/><path class="cls-1" d="M292.79,168.47a8,8,0,0,0-11,2.21l-15.91,23.87a7.93,7.93,0,0,0,0,8.83l15.91,23.88A8,8,0,1,0,295,218.43l-7.66-11.5h48.8a8,8,0,0,0,0-15.92h-48.8l7.66-11.5a8,8,0,0,0-2.2-11Z"/><path class="cls-1" d="M315.8,293.14a8,8,0,0,0,11-2.21l15.92-23.88a8,8,0,0,0,0-8.83l-15.92-23.87a8,8,0,1,0-13.24,8.83l7.67,11.5H272.45a8,8,0,0,0,0,15.92h48.81l-7.67,11.5a8,8,0,0,0,2.21,11Z"/><path class="cls-2" d="M199.52,281.46a5.89,5.89,0,0,0,5.89-5.89v-5.88h2.29a21.27,21.27,0,0,0,21.24-21.25v-4.58a21.26,21.26,0,0,0-21.24-21.24h-2.29V199.08h11.76a5.89,5.89,0,1,0,0-11.77H205.41v-5.88a5.89,5.89,0,0,0-11.77,0v5.88h-2.29a21.27,21.27,0,0,0-21.25,21.24v4.59a21.27,21.27,0,0,0,21.25,21.24h2.29v23.54H177.1a5.89,5.89,0,0,0,0,11.77h16.54v5.88a5.89,5.89,0,0,0,5.88,5.89Zm-8.17-58.85a9.48,9.48,0,0,1-9.48-9.47v-4.59a9.49,9.49,0,0,1,9.48-9.47h2.29v23.54h-2.29Zm14.06,11.77h2.29a9.49,9.49,0,0,1,9.47,9.48v4.58a9.48,9.48,0,0,1-9.47,9.48h-2.29Z"/><path class="cls-3" d="M423.67,47.76a8,8,0,0,0-8,8V71.63a8,8,0,1,0,15.92,0V55.71a8,8,0,0,0-8-8Z"/><path class="cls-4" d="M415.71,15.92v8a8,8,0,1,0,15.92,0V8a8,8,0,0,0-8-8h-8a8,8,0,0,0,0,15.92Z"/><path class="cls-5" d="M304.29,15.92h23.88a8,8,0,0,0,0-15.92H304.29a8,8,0,0,0,0,15.92Z"/><path class="cls-6" d="M360,15.92h23.88a8,8,0,0,0,0-15.92H360a8,8,0,0,0,0,15.92Z"/><path class="cls-7" d="M200.83,79.59a8,8,0,0,0,8-8V47.76a8,8,0,1,0-15.92,0V71.63a8,8,0,0,0,8,8Z"/><path class="cls-8" d="M200.83,23.87a8,8,0,0,0,8-8h8a8,8,0,1,0,0-15.92H200.83a8,8,0,0,0-8,8v8a8,8,0,0,0,8,8Z"/><path class="cls-9" d="M248.58,15.92h23.87a8,8,0,1,0,0-15.92H248.58a8,8,0,0,0,0,15.92Z"/><path class="cls-10" d="M457.66,193.24l-29.75,71.5a1.56,1.56,0,0,1-1.46,1h-7.21a1.59,1.59,0,0,1-1.3-.65,1.44,1.44,0,0,1-.18-1.39l29.53-71.5a1.58,1.58,0,0,1,1.47-1h7.43a1.61,1.61,0,0,1,1.3.65A1.45,1.45,0,0,1,457.66,193.24Zm5.93,55.49a7.81,7.81,0,0,0-8,7.94,7.7,7.7,0,0,0,7.82,7.93h.11a7.94,7.94,0,1,0,.11-15.87Zm-68.08-27.17c-10.95-4-12.88-6.78-12.88-11.07,0-3.94,3.47-7.92,11.22-7.92a25,25,0,0,1,12.46,2.94,2.55,2.55,0,0,0,2.15.21A2.49,2.49,0,0,0,410,204.2l2.6-7.3a2.45,2.45,0,0,0-1.14-3c-2-1.12-7.72-3.72-17.29-3.72-15.4,0-26.15,8.76-26.15,21.31,0,10,6.85,17.22,21,22.09,10.11,3.59,12.09,6.88,12.09,11.36,0,5.86-4.76,9.36-12.74,9.36a30.45,30.45,0,0,1-15.45-4.15,2.67,2.67,0,0,0-2.19-.24,2.52,2.52,0,0,0-1.57,1.57L366.63,259a2.44,2.44,0,0,0,1,2.83c4.51,2.86,12.93,4.93,20,4.93,20.66,0,28-12.14,28-22.54C415.68,233.5,409.84,226.93,395.51,221.56Z"/><circle class="cls-11" cx="110.19" cy="383.18" r="110.19"/><text class="cls-12" transform="translate(69.8 431.86)">1</text></g></g></svg>